<?xml version="1.0" encoding="UTF-8"?>
<svg width="26px" height="29px" viewBox="0 0 26 29" version="1.1" xmlns="http://www.w3.org/2000/svg" xmlns:xlink="http://www.w3.org/1999/xlink">
    <!-- Generator: Sketch 42 (36781) - http://www.bohemiancoding.com/sketch -->
    <title>Artboard</title>
    <desc>Created with Sketch.</desc>
    <defs></defs>
    <g id="Page-1" stroke="none" stroke-width="1" fill="none" fill-rule="evenodd">
        <g id="Artboard" fill="#000000">
            <path d="M12.720313,15.3091706 C14.6992801,15.3091706 16.3091706,13.6992801 16.3091706,11.720313 C16.3091706,9.74134585 14.6992801,8.1314554 12.720313,8.1314554 C10.7413459,8.1314554 9.1314554,9.74134585 9.1314554,11.720313 C9.1314554,13.6992801 10.7413459,15.3091706 12.720313,15.3091706 L12.720313,15.3091706 Z M12.720313,9.5086072 C13.9390923,9.5086072 14.9320188,10.5001565 14.9320188,11.720313 C14.9320188,12.9404695 13.9404695,13.9320188 12.720313,13.9320188 C11.5001565,13.9320188 10.5086072,12.9390923 10.5086072,11.720313 C10.5086072,10.5015336 11.5001565,9.5086072 12.720313,9.5086072 L12.720313,9.5086072 Z M12.2190297,25.6612207 C12.3347105,25.7892958 12.4462598,25.8719249 12.5536776,25.9297653 C12.5550548,25.9311424 12.5578091,25.9311424 12.5591862,25.9325196 C12.6335524,25.9710798 12.7065415,26 12.7753991,26 C12.8442567,26 12.9172457,25.9710798 12.9916119,25.9325196 C12.992989,25.9311424 12.9957433,25.9311424 12.9971205,25.9297653 C13.1045383,25.8719249 13.2160876,25.7892958 13.3317684,25.6612207 C13.3317684,25.6612207 19.73277,18.6997183 20.3758998,12.6677934 C20.4144601,12.3565571 20.440626,12.0411894 20.440626,11.720313 C20.440626,7.45665102 16.983975,4 12.720313,4 C8.45665102,4 5,7.45665102 5,11.720313 C5,12.046698 5.02616588,12.36482 5.06610329,12.6801878 C5.725759,18.7093584 12.2190297,25.6612207 12.2190297,25.6612207 L12.2190297,25.6612207 Z M12.720313,5.3771518 C16.2182786,5.3771518 19.0634742,8.22234742 19.0634742,11.720313 C19.0634742,11.9530516 19.0469484,12.200939 19.007011,12.5218153 C18.5139906,17.1435368 14.1745853,22.5667606 12.7767762,24.2165884 C11.3431612,22.5640063 6.94178404,17.154554 6.43223787,12.5107981 C6.39505477,12.2064476 6.3771518,11.9558059 6.3771518,11.720313 C6.3771518,8.22234742 9.22234742,5.3771518 12.720313,5.3771518 L12.720313,5.3771518 Z" id="Shape"></path>
        </g>
    </g>
</svg>