<?xml version="1.0" encoding="UTF-8"?>
<svg width="22px" height="22px" viewBox="0 0 22 22" version="1.1" xmlns="http://www.w3.org/2000/svg" xmlns:xlink="http://www.w3.org/1999/xlink">
    <!-- Generator: Sketch 43.1 (39012) - http://www.bohemiancoding.com/sketch -->
    <title>120 - iPhone@2x</title>
    <desc>Created with Sketch.</desc>
    <defs></defs>
    <g id="Page-1" stroke="none" stroke-width="1" fill="none" fill-rule="evenodd">
        <g id="120---iPhone" fill="#000000">
            <path d="M19,14.5 C17.75,14.5 16.55,14.3 15.43,13.93 C15.08,13.82 14.69,13.9 14.41,14.17 L12.21,16.37 C9.38,14.93 7.06,12.62 5.62,9.79 L7.82,7.58 C8.1,7.31 8.18,6.92 8.07,6.57 C7.7,5.45 7.5,4.25 7.5,3 C7.5,2.45 7.05,2 6.5,2 L3,2 C2.45,2 2,2.45 2,3 C2,12.39 9.61,20 19,20 C19.55,20 20,19.55 20,19 L20,15.5 C20,14.95 19.55,14.5 19,14.5 L19,14.5 Z" id="Shape"></path>
        </g>
    </g>
</svg>