<?xml version="1.0" encoding="UTF-8"?>
<svg width="26px" height="29px" viewBox="0 0 26 29" version="1.1" xmlns="http://www.w3.org/2000/svg" xmlns:xlink="http://www.w3.org/1999/xlink">
    <!-- Generator: Sketch 42 (36781) - http://www.bohemiancoding.com/sketch -->
    <title>Artboard</title>
    <desc>Created with Sketch.</desc>
    <defs></defs>
    <g id="Page-1" stroke="none" stroke-width="1" fill="none" fill-rule="evenodd">
        <g id="Artboard" fill="#000000">
            <path d="M22.625,9.5 L14.403875,9.5 L11.625,9.5 L3.375,9.5 C2.616,9.5 2,10.0936 2,10.825 L2,14.7999999 L3.375,14.7999999 L3.375,24.0749997 C3.375,24.8063996 3.991,25.3999996 4.75,25.3999996 L11.625,25.3999996 L14.403875,25.3999996 L21.25,25.3999996 C22.009,25.3999996 22.625,24.8063996 22.625,24.0749997 L22.625,14.7999999 L24,14.7999999 L24,10.825 C24,10.0936 23.384,9.5 22.625,9.5 L22.625,9.5 Z M2.6875,10.1875 L12.3125,10.1875 L12.3125,14.3125 L2.6875,14.3125 L2.6875,10.1875 L2.6875,10.1875 Z M4.0625,24.625 L4.0625,15 L12.3125,15 L12.3125,24.625 L4.0625,24.625 L4.0625,24.625 Z M21.9519375,24.625 L13.7019375,24.625 L13.7019375,15 L21.9519375,15 L21.9519375,24.625 L21.9519375,24.625 Z M23.3269375,14.3125 L13.7019375,14.3125 L13.7019375,10.1875 L23.3269375,10.1875 L23.3269375,14.3125 L23.3269375,14.3125 Z M13,8.125 C13,8.12225 12.998625,8.11675 12.998625,8.114 L13.00275,8.114 C13.001375,8.11675 13,8.12225 13,8.125 L18.5,8.125 C20.398875,8.125 21.25,7.201 21.25,6.0625 C21.25,4.924 20.398875,4 18.5,4 C16.722125,4 15.322375,4.80025 14.375,5.728375 C13.95975,5.48225 13.479875,5.332375 12.960125,5.332375 C12.462375,5.332375 12.00175,5.472625 11.5975,5.700875 C10.6515,4.78375 9.26,4 7.5,4 C5.601125,4 4.75,4.924 4.75,6.0625 C4.75,7.201 5.601125,8.125 7.5,8.125 L13,8.125 L13,8.125 Z M19.875,6.0625 C19.875,6.630375 19.127,6.75 18.5,6.75 L15.377375,6.75 C15.366375,6.73075 15.35675,6.710125 15.34575,6.69225 C16.04425,6.013 17.103,5.375 18.5,5.375 C19.127,5.375 19.875,5.494625 19.875,6.0625 L19.875,6.0625 Z M6.125,6.0625 C6.125,5.494625 6.873,5.375 7.5,5.375 C8.86675,5.375 9.9035,5.986875 10.602,6.64275 C10.58,6.677125 10.5635,6.71425 10.542875,6.75 L7.5,6.75 C6.873,6.75 6.125,6.630375 6.125,6.0625 L6.125,6.0625 Z" id="Shape"></path>
        </g>
    </g>
</svg>