<?xml version="1.0" encoding="UTF-8"?>
<svg width="26px" height="29px" viewBox="0 0 26 29" version="1.1" xmlns="http://www.w3.org/2000/svg" xmlns:xlink="http://www.w3.org/1999/xlink">
    <!-- Generator: Sketch 42 (36781) - http://www.bohemiancoding.com/sketch -->
    <title>Artboard@2x</title>
    <desc>Created with Sketch.</desc>
    <defs></defs>
    <g id="Page-1" stroke="none" stroke-width="1" fill="none" fill-rule="evenodd">
        <g id="Artboard" fill="#000000">
            <path d="M5.29372851,6.01012568 C5.35886219,5.91994058 5.4420329,5.83326267 5.53271903,5.74908991 C5.55025502,5.86081923 5.57280129,5.97355061 5.61338459,6.08878713 L7.34994879,11.0143967 L2.00648161,11.0143967 C2.00998881,10.737328 2.08263792,10.4637665 2.23595259,10.2503285 L5.29372851,6.01012568 Z M11.543556,5.00205667 L8.0644152,10.0273709 L6.55832403,5.75560328 C6.44609368,5.43745029 6.51623765,5.20046389 6.73017675,5.08372429 C6.91706031,5.03161734 7.10093771,5.00205667 7.27028529,5.00205667 L11.543556,5.00205667 Z M18.281886,5.0892356 C18.4873076,5.20697726 18.5514393,5.43995543 18.4397099,5.75460123 L16.9261033,10.0143441 L13.4564821,5.00205667 L17.7297528,5.00205667 C17.9021065,5.00205667 18.0904932,5.03412248 18.281886,5.0892356 L18.281886,5.0892356 Z M19.7063096,6.01012568 L22.7640855,10.2503285 C22.9179012,10.4642676 22.9905503,10.737829 22.9935565,11.0143967 L17.6340564,11.0143967 L19.3841484,6.08978918 C19.4252327,5.97405164 19.447779,5.86081923 19.466317,5.74858889 C19.5570031,5.83276165 19.6411759,5.91994058 19.7063096,6.01012568 L19.7063096,6.01012568 Z M17.2783263,12.0164533 L22.6152801,12.0164533 L13.7936742,21.824584 L17.2783263,12.0164533 Z M11.1612713,21.823582 L2.38074978,12.0164533 L7.7036748,12.0164533 L11.1612713,21.823582 Z M16.2146431,12.0164533 L12.4759697,22.5395515 L8.76585487,12.0164533 L16.2146431,12.0164533 Z M8.60001449,11.0143967 L12.499518,5.38133512 L16.3995226,11.0143967 L8.60001449,11.0143967 Z M23.5767535,9.66412532 L20.5189775,5.42442355 C20.1221631,4.87379341 19.4222265,4.41334838 18.7017478,4.17535992 C18.475283,4.0636306 18.2092369,4 17.910123,4 L17.7297528,4 L7.27028529,4 L7.09141817,4 C6.79681351,4 6.53227055,4.06162649 6.30780986,4.17135169 C5.58382392,4.40783706 4.88138219,4.86928416 4.48106055,5.42442355 L1.42328463,9.66412532 C0.802510523,10.5258941 0.872153462,11.834079 1.58211061,12.6272069 L12.0806583,24.352272 C12.0816604,24.353775 12.0826624,24.3547771 12.0841655,24.3562802 L12.1012005,24.3753193 C12.1057097,24.3803296 12.1122231,24.3818326 12.1167324,24.3868429 C12.1573157,24.4294303 12.2039113,24.4619972 12.2545152,24.4865476 C12.2670409,24.4930609 12.2795666,24.4990733 12.2930943,24.5045846 C12.3497105,24.5261288 12.4093329,24.5406586 12.4699573,24.5411596 L12.4774728,24.5411596 C12.5385982,24.5411596 12.5982206,24.5266298 12.6553378,24.5050856 C12.6683646,24.4995743 12.6803892,24.494063 12.693416,24.4875496 C12.7450219,24.4629992 12.7916175,24.4299314 12.8327019,24.3868429 C12.8372111,24.3823337 12.8432235,24.3808306 12.8472317,24.3763213 L12.8622625,24.3597874 C12.8642666,24.3572822 12.8667718,24.3552781 12.8687759,24.352272 L23.4129172,12.6277079 C24.1268826,11.834079 24.1995317,10.5278982 23.5767535,9.66412532 L23.5767535,9.66412532 Z" id="RUBY"></path>
        </g>
    </g>
</svg>