<?xml version="1.0" encoding="UTF-8"?>
<svg width="24px" height="24px" viewBox="0 0 24 24" version="1.1" xmlns="http://www.w3.org/2000/svg" xmlns:xlink="http://www.w3.org/1999/xlink">
    <!-- Generator: Sketch 43.2 (39069) - http://www.bohemiancoding.com/sketch -->
    <title>post-instagram</title>
    <desc>Created with Sketch.</desc>
    <defs></defs>
    <g id="Page-1" stroke="none" stroke-width="1" fill="none" fill-rule="evenodd">
        <g id="48-copy" transform="translate(-14.000000, -14.000000)" fill="#C2986E">
            <g id="post-instagram" transform="translate(14.000000, 14.000000)">
                <path d="M21.6,0 L2.4,0 C1.08,0 0,1.08 0,2.4 L0,21.6 C0,22.92 1.08,24 2.4,24 L21.6,24 C22.92,24 24,22.92 24,21.6 L24,2.4 C24,1.08 22.92,0 21.6,0 L21.6,0 Z M12,7.2 C14.64,7.2 16.8,9.36 16.8,12 C16.8,14.64 14.64,16.8 12,16.8 C9.36,16.8 7.2,14.64 7.2,12 C7.2,9.36 9.36,7.2 12,7.2 L12,7.2 Z M3,21.6 C2.64,21.6 2.4,21.36 2.4,21 L2.4,10.8 L4.92,10.8 C4.8,11.16 4.8,11.64 4.8,12 C4.8,15.96 8.04,19.2 12,19.2 C15.96,19.2 19.2,15.96 19.2,12 C19.2,11.64 19.2,11.16 19.08,10.8 L21.6,10.8 L21.6,21 C21.6,21.36 21.36,21.6 21,21.6 L3,21.6 L3,21.6 Z M21.6,5.4 C21.6,5.76 21.36,6 21,6 L18.6,6 C18.24,6 18,5.76 18,5.4 L18,3 C18,2.64 18.24,2.4 18.6,2.4 L21,2.4 C21.36,2.4 21.6,2.64 21.6,3 L21.6,5.4 L21.6,5.4 Z" id="Shape"></path>
            </g>
        </g>
    </g>
</svg>