<?xml version="1.0" encoding="UTF-8"?>
<svg width="296px" height="96px" viewBox="0 0 296 96" version="1.1" xmlns="http://www.w3.org/2000/svg" xmlns:xlink="http://www.w3.org/1999/xlink">
    <!-- Generator: Sketch 42 (36781) - http://www.bohemiancoding.com/sketch -->
    <title>Artboard</title>
    <desc>Created with Sketch.</desc>
    <defs>
        <linearGradient x1="0%" y1="9.39503864%" x2="52.8878869%" y2="195.539236%" id="linearGradient-1">
            <stop stop-color="#C2986E" offset="0%"></stop>
            <stop stop-color="#BF9B30" offset="100%"></stop>
        </linearGradient>
    </defs>
    <g id="Page-1" stroke="none" stroke-width="1" fill="none" fill-rule="evenodd">
        <g id="Artboard">
            <g id="Group-3-Copy-4" transform="translate(11.000000, 18.000000)">
                <g id="Group">
                    <g id="1" fill="url(#linearGradient-1)">
                        <path d="M16.6490323,1.65419355 C20.0554839,1.78193548 23.5045161,1.78193548 26.6554839,1.65419355 L26.6554839,3.01677419 C24.1858065,3.22967742 22.6103226,3.52774194 22.6103226,4.59225806 L22.6103226,28.0967742 L21.12,28.0967742 L6.34451613,6.08258065 L6.34451613,25.1587097 C6.34451613,26.2232258 7.92,26.5212903 10.6451613,26.7341935 L10.6451613,28.0967742 C7.23870968,27.9690323 3.78967742,27.9690323 0.638709677,28.0967742 L0.638709677,26.7341935 C3.15096774,26.5212903 4.68387097,26.2232258 4.68387097,25.1587097 L4.68387097,4.97548387 C4.68387097,3.91096774 3.36387097,3.18709677 1.10709677,3.01677419 L1.10709677,1.65419355 C3.83225806,1.78193548 6.55741935,1.78193548 9.32516129,1.65419355 L20.9070968,19.1548387 L20.9070968,4.59225806 C20.9070968,3.52774194 19.4167742,3.22967742 16.6490323,3.01677419 L16.6490323,1.65419355 L16.6490323,1.65419355 Z M41.0051613,0.972903226 C48.2012903,0.972903226 53.3535484,6.76387097 53.3535484,14.9393548 C53.3535484,22.8167742 48.2864516,28.6929032 41.1329032,28.6929032 C33.9367742,28.6929032 28.7845161,22.9019355 28.7845161,14.7264516 C28.7845161,6.80645161 33.8516129,0.972903226 41.0051613,0.972903226 Z M41.6864516,27.16 C45.0929032,27.16 48.0309677,24.0516129 48.0309677,16.0890323 C48.0309677,8.29677419 44.88,2.50580645 40.323871,2.50580645 C37.0451613,2.50580645 34.1070968,5.5716129 34.1070968,13.5341935 C34.1070968,21.3264516 37.2580645,27.16 41.6864516,27.16 L41.6864516,27.16 Z M67.6180645,28.48 L58.3780645,4.54967742 C57.9948387,3.57032258 57.5690323,3.18709677 55.2696774,3.01677419 L55.2696774,1.65419355 C59.0167742,1.78193548 62.7212903,1.78193548 66.5109677,1.65419355 L66.5109677,3.01677419 C64.1690323,3.18709677 63.1896774,3.57032258 63.5729032,4.54967742 L70.2154839,21.9651613 L76.1767742,4.54967742 C76.56,3.48516129 75.0270968,3.18709677 72.6851613,3.01677419 L72.6851613,1.65419355 C75.7083871,1.78193548 78.6890323,1.78193548 81.6696774,1.65419355 L81.6696774,3.01677419 C79.4129032,3.18709677 78.2632258,3.48516129 77.88,4.54967742 L69.5341935,28.48 L67.6180645,28.48 L67.6180645,28.48 Z M105.898065,23.4980645 C106.707097,25.6696774 107.090323,26.5212903 110.070968,26.7341935 L110.070968,28.0967742 C106.23871,27.9690323 102.27871,27.9690323 98.4464516,28.0967742 L98.4464516,26.7341935 C101.299355,26.5212903 101.64,26.0529032 101.00129,24.3496774 L99.0851613,19.1548387 L90.3987097,19.1548387 L88.5677419,24.52 C88.0567742,26.1380645 89.6748387,26.5212903 92.4,26.7341935 L92.4,28.0967742 C89.2916129,27.9690323 85.6296774,27.9690323 82.5212903,28.0967742 L82.5212903,26.7341935 C85.3316129,26.5212903 86.396129,25.84 87.0774194,23.8812903 L94.6993548,1.44129032 L97.5948387,1.44129032 L105.898065,23.4980645 Z M90.8670968,17.6645161 L98.5316129,17.6645161 L94.5290323,6.84903226 L90.8670968,17.6645161 Z M136.939355,13.5341935 C142.091613,14.3432258 144.816774,16.9832258 144.816774,20.6451613 C144.816774,25.2864516 140.856774,28.0967742 133.277419,28.0967742 L120.929032,28.0967742 L120.929032,26.7341935 C123.228387,26.563871 123.952258,26.2658065 123.952258,25.2012903 L123.952258,5.10322581 C123.952258,3.95354839 123.313548,3.18709677 121.099355,3.01677419 L121.099355,1.65419355 C125.016774,1.82451613 128.465806,1.65419355 130.935484,1.65419355 C139.792258,1.65419355 141.92129,5.01806452 141.92129,8.08387097 C141.92129,10.2980645 140.643871,12.1290323 136.939355,13.5341935 L136.939355,13.5341935 Z M128.976774,3.18709677 L128.976774,13.9174194 C135.193548,12.9806452 137.024516,11.5754839 137.024516,8.08387097 C137.024516,5.40129032 135.534194,3.14451613 131.616774,3.14451613 C130.254194,3.14451613 129.658065,3.14451613 128.976774,3.18709677 L128.976774,3.18709677 Z M133.107097,26.5212903 C137.578065,26.5212903 139.664516,24.6051613 139.664516,20.7303226 C139.664516,17.2812903 137.492903,14.6412903 133.447742,14.6412903 L128.976774,15.3651613 L128.976774,25.1587097 C128.976774,26.2232258 129.104516,26.5212903 131.276129,26.5212903 L133.107097,26.5212903 L133.107097,26.5212903 Z M165.596129,21.0709677 L167.171613,21.0709677 C166.32,23.5406452 165.979355,25.7974194 165.851613,28.0541935 C159.209032,27.9690323 153.332903,27.9690323 146.945806,28.0541935 L146.945806,26.6490323 C149.245161,26.436129 149.969032,26.1380645 149.969032,25.0735484 L149.969032,4.54967742 C149.969032,3.48516129 149.245161,3.18709677 146.945806,3.01677419 L146.945806,1.65419355 L165.085161,1.65419355 C165.63871,1.65419355 165.723871,1.78193548 165.809032,2.42064516 L166.447742,7.23225806 L164.957419,7.23225806 L164.446452,6.33806452 C163.254194,4.12387097 162.189677,3.22967742 159.932903,3.22967742 L155.504516,3.22967742 C155.163871,3.22967742 154.993548,3.4 154.993548,3.74064516 L154.993548,13.7896774 L160.060645,13.7896774 C162.189677,13.7896774 162.658065,12.8103226 163.04129,11.0645161 L164.31871,11.0645161 C164.105806,13.4916129 164.105806,15.7058065 164.31871,18.0903226 L163.04129,18.0903226 C162.658065,16.3870968 162.189677,15.3651613 160.060645,15.3651613 L154.993548,15.3651613 L154.993548,25.9677419 C154.993548,26.2658065 155.163871,26.4787097 155.504516,26.4787097 L159.123871,26.4787097 C161.976774,26.4787097 163.296774,25.84 164.233548,23.8812903 L165.596129,21.0709677 Z M192.251613,23.4980645 C193.060645,25.6696774 193.443871,26.5212903 196.424516,26.7341935 L196.424516,28.0967742 C192.592258,27.9690323 188.632258,27.9690323 184.8,28.0967742 L184.8,26.7341935 C187.652903,26.5212903 187.993548,26.0529032 187.354839,24.3496774 L185.43871,19.1548387 L176.752258,19.1548387 L174.92129,24.52 C174.410323,26.1380645 176.028387,26.5212903 178.753548,26.7341935 L178.753548,28.0967742 C175.645161,27.9690323 171.983226,27.9690323 168.874839,28.0967742 L168.874839,26.7341935 C171.685161,26.5212903 172.749677,25.84 173.430968,23.8812903 L181.052903,1.44129032 L183.948387,1.44129032 L192.251613,23.4980645 Z M177.220645,17.6645161 L184.885161,17.6645161 L180.882581,6.84903226 L177.220645,17.6645161 Z M225.72,3.01677419 C223.420645,3.18709677 222.611613,3.52774194 222.611613,4.59225806 L222.611613,25.1587097 C222.611613,26.2232258 223.420645,26.563871 225.72,26.7341935 L225.72,28.0967742 C222.058065,27.9690323 219.418065,27.9690323 216.948387,28.0967742 L216.948387,26.7341935 C217.374194,26.3935484 217.587097,26.0103226 217.587097,25.1587097 L217.587097,23.4129032 C216.352258,25.84 213.797419,28.5225806 209.326452,28.5225806 C203.876129,28.5225806 200.597419,25.116129 200.597419,20.0490323 L200.597419,4.59225806 C200.597419,3.52774194 199.788387,3.18709677 197.489032,3.01677419 L197.489032,1.65419355 C201.150968,1.78193548 205.110968,1.78193548 208.772903,1.65419355 L208.772903,3.01677419 C206.473548,3.18709677 205.664516,3.52774194 205.664516,4.59225806 L205.664516,20.0490323 C205.664516,24.2219355 207.410323,26.8193548 210.646452,26.8193548 C214.052903,26.8193548 216.437419,23.8812903 217.587097,21.3690323 L217.587097,4.59225806 C217.587097,3.52774194 216.778065,3.18709677 214.52129,3.01677419 L214.52129,1.65419355 C218.183226,1.78193548 222.058065,1.78193548 225.72,1.65419355 L225.72,3.01677419 L225.72,3.01677419 Z M247.52129,1.31354839 L248.883871,1.31354839 L247.393548,7.10451613 L245.860645,7.10451613 C246.20129,3.99612903 245.732903,3.18709677 244.072258,3.18709677 L240.538065,3.18709677 L240.538065,25.1587097 C240.538065,26.2232258 241.347097,26.563871 243.646452,26.7341935 L243.646452,28.0967742 C239.941935,27.9690323 236.109677,27.9690323 232.405161,28.0967742 L232.405161,26.7341935 C234.704516,26.563871 235.513548,26.2232258 235.513548,25.1587097 L235.513548,3.18709677 L232.234839,3.18709677 C230.574194,3.18709677 230.105806,3.78322581 228.487742,7.10451613 L226.997419,7.10451613 L228.530323,1.31354839 L229.892903,1.31354839 C231.085161,1.6116129 231.809032,1.65419355 233.938065,1.65419355 L243.476129,1.65419355 C245.605161,1.65419355 246.329032,1.6116129 247.52129,1.31354839 L247.52129,1.31354839 Z M267.108387,1.65419355 C269.91871,1.73935484 272.729032,1.73935484 275.539355,1.65419355 L275.539355,3.01677419 C273.112258,3.14451613 272.218065,3.74064516 271.494194,5.10322581 L265.32,17.0683871 L265.32,25.1587097 C265.32,26.2232258 266.129032,26.563871 268.428387,26.6916129 L268.428387,28.0967742 C264.766452,27.9690323 260.891613,27.9690323 257.187097,28.0967742 L257.187097,26.7341935 C259.486452,26.563871 260.295484,26.2232258 260.295484,25.1587097 L260.295484,17.2387097 L253.354839,4.63483871 C252.886452,3.78322581 252.418065,3.14451613 250.16129,3.01677419 L250.16129,1.65419355 C253.908387,1.73935484 257.655484,1.73935484 261.36,1.65419355 L261.36,3.01677419 C259.103226,3.14451613 258.592258,3.78322581 259.060645,4.63483871 L264.596129,14.9819355 L269.748387,5.06064516 C270.472258,3.65548387 269.365161,3.14451613 267.108387,3.01677419 L267.108387,1.65419355 L267.108387,1.65419355 Z" id="Shape"></path>
                    </g>
                    <text id="By-Dr.-Koltunova" font-family="GreatVibes-Regular, Great Vibes" font-size="18" font-weight="normal" letter-spacing="2.01999998" fill="#C2986E">
                        <tspan x="59.1100002" y="59">By Dr. Koltunova</tspan>
                    </text>
                </g>
            </g>
        </g>
    </g>
</svg>