<?xml version="1.0" encoding="UTF-8"?>
<svg width="275px" height="79px" viewBox="0 0 275 79" version="1.1" xmlns="http://www.w3.org/2000/svg" xmlns:xlink="http://www.w3.org/1999/xlink">
    <!-- Generator: Sketch 43.2 (39069) - http://www.bohemiancoding.com/sketch -->
    <title>Artboard</title>
    <desc>Created with Sketch.</desc>
    <defs>
        <linearGradient x1="0%" y1="9.39503864%" x2="52.8878869%" y2="195.539236%" id="linearGradient-1">
            <stop stop-color="#C2986E" offset="0%"></stop>
            <stop stop-color="#BF9B30" offset="100%"></stop>
        </linearGradient>
        <linearGradient x1="17.5328501%" y1="50%" x2="82.7975314%" y2="50%" id="linearGradient-2">
            <stop stop-color="#C2986E" offset="0%"></stop>
            <stop stop-color="#A17C57" offset="100%"></stop>
        </linearGradient>
    </defs>
    <g id="Page-1" stroke="none" stroke-width="1" fill="none" fill-rule="evenodd">
        <g id="Artboard">
            <g id="1" transform="translate(0.000000, 12.000000)" fill="url(#linearGradient-1)">
                <path d="M16.6490323,1.65419355 C20.0554839,1.78193548 23.5045161,1.78193548 26.6554839,1.65419355 L26.6554839,3.01677419 C24.1858065,3.22967742 22.6103226,3.52774194 22.6103226,4.59225806 L22.6103226,28.0967742 L21.12,28.0967742 L6.34451613,6.08258065 L6.34451613,25.1587097 C6.34451613,26.2232258 7.92,26.5212903 10.6451613,26.7341935 L10.6451613,28.0967742 C7.23870968,27.9690323 3.78967742,27.9690323 0.638709677,28.0967742 L0.638709677,26.7341935 C3.15096774,26.5212903 4.68387097,26.2232258 4.68387097,25.1587097 L4.68387097,4.97548387 C4.68387097,3.91096774 3.36387097,3.18709677 1.10709677,3.01677419 L1.10709677,1.65419355 C3.83225806,1.78193548 6.55741935,1.78193548 9.32516129,1.65419355 L20.9070968,19.1548387 L20.9070968,4.59225806 C20.9070968,3.52774194 19.4167742,3.22967742 16.6490323,3.01677419 L16.6490323,1.65419355 L16.6490323,1.65419355 Z M41.0051613,0.972903226 C48.2012903,0.972903226 53.3535484,6.76387097 53.3535484,14.9393548 C53.3535484,22.8167742 48.2864516,28.6929032 41.1329032,28.6929032 C33.9367742,28.6929032 28.7845161,22.9019355 28.7845161,14.7264516 C28.7845161,6.80645161 33.8516129,0.972903226 41.0051613,0.972903226 Z M41.6864516,27.16 C45.0929032,27.16 48.0309677,24.0516129 48.0309677,16.0890323 C48.0309677,8.29677419 44.88,2.50580645 40.323871,2.50580645 C37.0451613,2.50580645 34.1070968,5.5716129 34.1070968,13.5341935 C34.1070968,21.3264516 37.2580645,27.16 41.6864516,27.16 L41.6864516,27.16 Z M67.6180645,28.48 L58.3780645,4.54967742 C57.9948387,3.57032258 57.5690323,3.18709677 55.2696774,3.01677419 L55.2696774,1.65419355 C59.0167742,1.78193548 62.7212903,1.78193548 66.5109677,1.65419355 L66.5109677,3.01677419 C64.1690323,3.18709677 63.1896774,3.57032258 63.5729032,4.54967742 L70.2154839,21.9651613 L76.1767742,4.54967742 C76.56,3.48516129 75.0270968,3.18709677 72.6851613,3.01677419 L72.6851613,1.65419355 C75.7083871,1.78193548 78.6890323,1.78193548 81.6696774,1.65419355 L81.6696774,3.01677419 C79.4129032,3.18709677 78.2632258,3.48516129 77.88,4.54967742 L69.5341935,28.48 L67.6180645,28.48 L67.6180645,28.48 Z M105.898065,23.4980645 C106.707097,25.6696774 107.090323,26.5212903 110.070968,26.7341935 L110.070968,28.0967742 C106.23871,27.9690323 102.27871,27.9690323 98.4464516,28.0967742 L98.4464516,26.7341935 C101.299355,26.5212903 101.64,26.0529032 101.00129,24.3496774 L99.0851613,19.1548387 L90.3987097,19.1548387 L88.5677419,24.52 C88.0567742,26.1380645 89.6748387,26.5212903 92.4,26.7341935 L92.4,28.0967742 C89.2916129,27.9690323 85.6296774,27.9690323 82.5212903,28.0967742 L82.5212903,26.7341935 C85.3316129,26.5212903 86.396129,25.84 87.0774194,23.8812903 L94.6993548,1.44129032 L97.5948387,1.44129032 L105.898065,23.4980645 Z M90.8670968,17.6645161 L98.5316129,17.6645161 L94.5290323,6.84903226 L90.8670968,17.6645161 Z M136.939355,13.5341935 C142.091613,14.3432258 144.816774,16.9832258 144.816774,20.6451613 C144.816774,25.2864516 140.856774,28.0967742 133.277419,28.0967742 L120.929032,28.0967742 L120.929032,26.7341935 C123.228387,26.563871 123.952258,26.2658065 123.952258,25.2012903 L123.952258,5.10322581 C123.952258,3.95354839 123.313548,3.18709677 121.099355,3.01677419 L121.099355,1.65419355 C125.016774,1.82451613 128.465806,1.65419355 130.935484,1.65419355 C139.792258,1.65419355 141.92129,5.01806452 141.92129,8.08387097 C141.92129,10.2980645 140.643871,12.1290323 136.939355,13.5341935 L136.939355,13.5341935 Z M128.976774,3.18709677 L128.976774,13.9174194 C135.193548,12.9806452 137.024516,11.5754839 137.024516,8.08387097 C137.024516,5.40129032 135.534194,3.14451613 131.616774,3.14451613 C130.254194,3.14451613 129.658065,3.14451613 128.976774,3.18709677 L128.976774,3.18709677 Z M133.107097,26.5212903 C137.578065,26.5212903 139.664516,24.6051613 139.664516,20.7303226 C139.664516,17.2812903 137.492903,14.6412903 133.447742,14.6412903 L128.976774,15.3651613 L128.976774,25.1587097 C128.976774,26.2232258 129.104516,26.5212903 131.276129,26.5212903 L133.107097,26.5212903 L133.107097,26.5212903 Z M165.596129,21.0709677 L167.171613,21.0709677 C166.32,23.5406452 165.979355,25.7974194 165.851613,28.0541935 C159.209032,27.9690323 153.332903,27.9690323 146.945806,28.0541935 L146.945806,26.6490323 C149.245161,26.436129 149.969032,26.1380645 149.969032,25.0735484 L149.969032,4.54967742 C149.969032,3.48516129 149.245161,3.18709677 146.945806,3.01677419 L146.945806,1.65419355 L165.085161,1.65419355 C165.63871,1.65419355 165.723871,1.78193548 165.809032,2.42064516 L166.447742,7.23225806 L164.957419,7.23225806 L164.446452,6.33806452 C163.254194,4.12387097 162.189677,3.22967742 159.932903,3.22967742 L155.504516,3.22967742 C155.163871,3.22967742 154.993548,3.4 154.993548,3.74064516 L154.993548,13.7896774 L160.060645,13.7896774 C162.189677,13.7896774 162.658065,12.8103226 163.04129,11.0645161 L164.31871,11.0645161 C164.105806,13.4916129 164.105806,15.7058065 164.31871,18.0903226 L163.04129,18.0903226 C162.658065,16.3870968 162.189677,15.3651613 160.060645,15.3651613 L154.993548,15.3651613 L154.993548,25.9677419 C154.993548,26.2658065 155.163871,26.4787097 155.504516,26.4787097 L159.123871,26.4787097 C161.976774,26.4787097 163.296774,25.84 164.233548,23.8812903 L165.596129,21.0709677 Z M192.251613,23.4980645 C193.060645,25.6696774 193.443871,26.5212903 196.424516,26.7341935 L196.424516,28.0967742 C192.592258,27.9690323 188.632258,27.9690323 184.8,28.0967742 L184.8,26.7341935 C187.652903,26.5212903 187.993548,26.0529032 187.354839,24.3496774 L185.43871,19.1548387 L176.752258,19.1548387 L174.92129,24.52 C174.410323,26.1380645 176.028387,26.5212903 178.753548,26.7341935 L178.753548,28.0967742 C175.645161,27.9690323 171.983226,27.9690323 168.874839,28.0967742 L168.874839,26.7341935 C171.685161,26.5212903 172.749677,25.84 173.430968,23.8812903 L181.052903,1.44129032 L183.948387,1.44129032 L192.251613,23.4980645 Z M177.220645,17.6645161 L184.885161,17.6645161 L180.882581,6.84903226 L177.220645,17.6645161 Z M225.72,3.01677419 C223.420645,3.18709677 222.611613,3.52774194 222.611613,4.59225806 L222.611613,25.1587097 C222.611613,26.2232258 223.420645,26.563871 225.72,26.7341935 L225.72,28.0967742 C222.058065,27.9690323 219.418065,27.9690323 216.948387,28.0967742 L216.948387,26.7341935 C217.374194,26.3935484 217.587097,26.0103226 217.587097,25.1587097 L217.587097,23.4129032 C216.352258,25.84 213.797419,28.5225806 209.326452,28.5225806 C203.876129,28.5225806 200.597419,25.116129 200.597419,20.0490323 L200.597419,4.59225806 C200.597419,3.52774194 199.788387,3.18709677 197.489032,3.01677419 L197.489032,1.65419355 C201.150968,1.78193548 205.110968,1.78193548 208.772903,1.65419355 L208.772903,3.01677419 C206.473548,3.18709677 205.664516,3.52774194 205.664516,4.59225806 L205.664516,20.0490323 C205.664516,24.2219355 207.410323,26.8193548 210.646452,26.8193548 C214.052903,26.8193548 216.437419,23.8812903 217.587097,21.3690323 L217.587097,4.59225806 C217.587097,3.52774194 216.778065,3.18709677 214.52129,3.01677419 L214.52129,1.65419355 C218.183226,1.78193548 222.058065,1.78193548 225.72,1.65419355 L225.72,3.01677419 L225.72,3.01677419 Z M247.52129,1.31354839 L248.883871,1.31354839 L247.393548,7.10451613 L245.860645,7.10451613 C246.20129,3.99612903 245.732903,3.18709677 244.072258,3.18709677 L240.538065,3.18709677 L240.538065,25.1587097 C240.538065,26.2232258 241.347097,26.563871 243.646452,26.7341935 L243.646452,28.0967742 C239.941935,27.9690323 236.109677,27.9690323 232.405161,28.0967742 L232.405161,26.7341935 C234.704516,26.563871 235.513548,26.2232258 235.513548,25.1587097 L235.513548,3.18709677 L232.234839,3.18709677 C230.574194,3.18709677 230.105806,3.78322581 228.487742,7.10451613 L226.997419,7.10451613 L228.530323,1.31354839 L229.892903,1.31354839 C231.085161,1.6116129 231.809032,1.65419355 233.938065,1.65419355 L243.476129,1.65419355 C245.605161,1.65419355 246.329032,1.6116129 247.52129,1.31354839 L247.52129,1.31354839 Z M267.108387,1.65419355 C269.91871,1.73935484 272.729032,1.73935484 275.539355,1.65419355 L275.539355,3.01677419 C273.112258,3.14451613 272.218065,3.74064516 271.494194,5.10322581 L265.32,17.0683871 L265.32,25.1587097 C265.32,26.2232258 266.129032,26.563871 268.428387,26.6916129 L268.428387,28.0967742 C264.766452,27.9690323 260.891613,27.9690323 257.187097,28.0967742 L257.187097,26.7341935 C259.486452,26.563871 260.295484,26.2232258 260.295484,25.1587097 L260.295484,17.2387097 L253.354839,4.63483871 C252.886452,3.78322581 252.418065,3.14451613 250.16129,3.01677419 L250.16129,1.65419355 C253.908387,1.73935484 257.655484,1.73935484 261.36,1.65419355 L261.36,3.01677419 C259.103226,3.14451613 258.592258,3.78322581 259.060645,4.63483871 L264.596129,14.9819355 L269.748387,5.06064516 C270.472258,3.65548387 269.365161,3.14451613 267.108387,3.01677419 L267.108387,1.65419355 L267.108387,1.65419355 Z" id="Shape"></path>
            </g>
            <path d="M71.104445,67.16 C71.104445,67.9200038 70.8311144,68.6266634 70.284445,69.28 C69.5111078,70.213338 68.4777848,70.8866646 67.184445,71.3 C66.2244402,71.6066682 65.2911162,71.76 64.384445,71.76 C64.05111,71.76 63.7244466,71.7400002 63.404445,71.7 C61.3111012,71.433332 59.5377856,70.9733366 58.084445,70.32 C56.7644384,71.2933382 55.371119,71.78 53.904445,71.78 C52.171103,71.78 51.0977804,71.3000048 50.684445,70.34 C50.5911112,70.1133322 50.544445,69.8466682 50.544445,69.54 C50.544445,69.2333318 50.6977768,68.9066684 51.004445,68.56 C51.4844474,68.026664 52.1511074,67.76 53.004445,67.76 C53.5644478,67.76 54.0711094,67.8399992 54.524445,68 C54.9777806,68.1600008 55.537775,68.4199982 56.204445,68.78 C56.871115,69.1400018 57.3644434,69.3999992 57.684445,69.56 C58.2711146,68.9866638 58.8777752,68.1900051 59.504445,67.17 C60.1311148,66.1499949 60.6811093,65.1500049 61.154445,64.17 C61.6277807,63.1899951 62.231108,62.100006 62.964445,60.9 C63.697782,59.699994 64.4444412,58.6800042 65.204445,57.84 L66.344445,56.54 C65.2911064,56.3533324 64.131118,56.26 62.864445,56.26 C61.597772,56.26 60.2044526,56.426665 58.684445,56.76 C56.6044346,57.2000022 55.0044506,58.0933266 53.884445,59.44 C53.2044416,60.2533374 52.864445,61.026663 52.864445,61.76 C52.864445,62.7333382 53.3377736,63.3666652 54.284445,63.66 C54.61778,63.7533338 54.9111104,63.8 55.164445,63.8 C55.4177796,63.8 55.71111,63.7533338 56.044445,63.66 C56.37778,63.5666662 56.7011101,63.3700015 57.014445,63.07 C57.3277799,62.7699985 57.5544443,62.4800014 57.694445,62.2 C57.8344457,61.9199986 57.904445,61.7100007 57.904445,61.57 C57.904445,61.4299993 57.971111,61.36 58.104445,61.36 C58.237779,61.3733334 58.3111116,61.4666658 58.324445,61.64 L58.324445,61.66 C58.1777776,62.6333382 57.6577828,63.3733308 56.764445,63.88 C56.2177756,64.1733348 55.6711144,64.32 55.124445,64.32 L54.084445,64.14 C52.6711046,63.6466642 51.964445,62.7266734 51.964445,61.38 C51.964445,60.4599954 52.3711076,59.5533378 53.184445,58.66 C54.4911182,57.193326 56.411099,56.2800018 58.944445,55.92 C60.1711178,55.7466658 61.4477717,55.66 62.774445,55.66 C64.1011183,55.66 65.4511048,55.8066652 66.824445,56.1 C67.1977802,55.7799984 67.5244436,55.5666672 67.804445,55.46 C68.0844464,55.3533328 68.2477781,55.3 68.294445,55.3 C68.3411119,55.3 68.3711116,55.3066666 68.384445,55.32 C68.4644454,55.32 68.4811119,55.3633329 68.434445,55.45 C68.3877781,55.5366671 68.2411129,55.6599992 67.994445,55.82 C67.7477771,55.9800008 67.5977786,56.126666 67.544445,56.26 C69.3577874,56.726669 70.664441,57.393329 71.464445,58.26 C71.8911138,58.7400024 72.104445,59.2299975 72.104445,59.73 C72.104445,60.2300025 71.9577798,60.7333308 71.664445,61.24 C71.2777764,61.90667 70.651116,62.4099983 69.784445,62.75 C68.917774,63.0900017 68.0444494,63.2799998 67.164445,63.32 C68.0177826,63.586668 68.811108,63.9599976 69.544445,64.44 C70.5844502,65.1200034 71.104445,66.026661 71.104445,67.16 Z M64.104445,71.2 C65.5977858,71.2 66.8644398,70.7733376 67.904445,69.92 C69.037784,69.0133288 69.604445,68.0333386 69.604445,66.98 C69.604445,65.8866612 69.0244508,65.0600028 67.864445,64.5 C67.4377762,64.299999 66.9144481,64.1033343 66.294445,63.91 C65.6744419,63.7166657 65.1744469,63.553334 64.794445,63.42 C64.4144431,63.286666 64.1977786,63.1600006 64.144445,63.04 C64.144445,62.7866654 64.3377764,62.6533334 64.724445,62.64 C64.9777796,62.64 65.3644424,62.6599998 65.884445,62.7 C66.4044476,62.7400002 66.8511098,62.7566667 67.224445,62.75 C67.5977802,62.7433333 68.0477757,62.6100013 68.574445,62.35 C69.1011143,62.0899987 69.5511098,61.7533354 69.924445,61.34 C70.524448,60.67333 70.824445,60.0466696 70.824445,59.46 C70.824445,58.2066604 69.6511234,57.3066694 67.304445,56.76 C66.5977748,57.7333382 65.3311208,59.7899843 63.504445,62.93 C61.6777692,66.0700157 60.2711166,68.173328 59.284445,69.24 L58.524445,69.96 C60.0311192,70.5866698 61.651103,70.9866658 63.384445,71.16 C63.6377796,71.1866668 63.8777772,71.2 64.104445,71.2 Z M57.244445,69.94 C55.6844372,69.1933296 54.6977804,68.7466674 54.284445,68.6 C53.8711096,68.4533326 53.4611137,68.38 53.054445,68.38 C52.6477763,68.38 52.3244462,68.5233319 52.084445,68.81 C51.8444438,69.0966681 51.724445,69.3566655 51.724445,69.59 C51.724445,69.8233345 51.7777778,70.0466656 51.884445,70.26 C52.1777798,70.860003 52.791107,71.16 53.724445,71.16 C54.991118,71.16 56.1644396,70.7533374 57.244445,69.94 Z M71.7888894,77.32 C71.2022198,77.32 70.748891,77.1966679 70.4288894,76.95 C70.1088878,76.7033321 69.9488894,76.4066684 69.9488894,76.06 C69.9488894,75.7133316 70.0488884,75.3200022 70.2488894,74.88 C70.5955578,74.1999966 71.2222182,73.6533354 72.1288894,73.24 C72.8088928,72.9199984 73.7088838,72.6233347 74.8288894,72.35 C75.948895,72.0766653 76.6688878,71.8933338 76.9888894,71.8 C77.4688918,70.9599958 78.0422194,69.4600108 78.7088894,67.3 C77.9355522,68.6600068 77.288892,69.6133306 76.7688894,70.16 C76.2488868,70.7066694 75.7222254,70.98 75.1888894,70.98 C74.4688858,70.98 74.04889,70.680003 73.9288894,70.08 C73.8755558,69.9866662 73.8622226,69.8466676 73.8888894,69.66 C73.9155562,69.4733324 73.9322227,69.3400004 73.9388894,69.26 C73.9455561,69.1799996 73.988889,69.0500009 74.0688894,68.87 C74.1488898,68.6899991 74.2022226,68.5600004 74.2288894,68.48 C74.3755568,68.1733318 74.5022222,67.9333342 74.6088894,67.76 C74.395555,67.76 74.3355556,67.6533344 74.4288894,67.44 L74.7888894,66.74 C75.242225,65.873329 75.6155546,65.140003 75.9088894,64.54 C76.0422234,64.2599986 76.3022208,64.12 76.6888894,64.12 L77.9088894,64.12 C77.8822226,64.1466668 77.8155566,64.1999996 77.7088894,64.28 C77.4688882,64.4400008 77.28889,64.6266656 77.1688894,64.84 C76.688887,65.6666708 76.088893,66.846659 75.3688894,68.38 C75.0755546,69.0066698 74.9288894,69.4666652 74.9288894,69.76 C74.9288894,70.0533348 74.9788889,70.2599994 75.0788894,70.38 C75.1788899,70.5000006 75.3155552,70.56 75.4888894,70.56 C75.742224,70.56 76.0955538,70.293336 76.5488894,69.76 C77.4955608,68.6533278 78.542217,66.9133452 79.6888894,64.54 C79.8355568,64.2599986 80.0955542,64.12 80.4688894,64.12 L81.5488894,64.12 C81.202221,64.3600012 80.9288904,64.6633315 80.7288894,65.03 C80.5288884,65.3966685 80.3122239,65.8933302 80.0788894,66.52 C79.8455549,67.1466698 79.5522245,67.9799948 79.1988894,69.02 C78.8455543,70.0600052 78.575557,70.8399974 78.3888894,71.36 C79.642229,70.9866648 80.6022194,70.3266714 81.2688894,69.38 C81.5622242,68.9666646 81.98222,68.2333386 82.5288894,67.18 C82.6222232,66.9933324 82.7055557,66.9199998 82.7788894,66.96 C82.8522231,67.0000002 82.8888894,67.053333 82.8888894,67.12 C82.8888894,67.186667 82.7788905,67.4433311 82.5588894,67.89 C82.3388883,68.3366689 82.1155572,68.7499981 81.8888894,69.13 C81.6622216,69.5100019 81.3688912,69.899998 81.0088894,70.3 C80.6488876,70.700002 80.2488916,71.0166655 79.8088894,71.25 C79.3688872,71.4833345 78.7822264,71.733332 78.0488894,72 C77.0222176,73.866676 75.9888946,75.2399956 74.9488894,76.12 C73.9755512,76.920004 72.9222284,77.32 71.7888894,77.32 Z M70.6288894,75.34 C70.482222,75.6333348 70.4088894,75.9033321 70.4088894,76.15 C70.4088894,76.3966679 70.5022218,76.586666 70.6888894,76.72 C70.875557,76.853334 71.108888,76.92 71.3888894,76.92 C72.1622266,76.92 72.988885,76.5233373 73.8688894,75.73 C74.7488938,74.9366627 75.5222194,74.0866712 76.1888894,73.18 L76.6288894,72.44 C74.4288784,73.0133362 73.0422256,73.4266654 72.4688894,73.68 C71.6155518,74.0533352 71.0022246,74.606663 70.6288894,75.34 Z M98.5577781,70.28 C97.3177719,71.280005 95.9444523,71.78 94.4377781,71.78 C92.7177695,71.78 91.6577801,71.3000048 91.2577781,70.34 C91.1644443,70.1133322 91.1177781,69.8500015 91.1177781,69.55 C91.1177781,69.2499985 91.2711099,68.9266684 91.5777781,68.58 C92.0577805,68.0333306 92.7244405,67.76 93.5777781,67.76 C94.1511143,67.76 94.7277752,67.8633323 95.3077781,68.07 C95.887781,68.2766677 96.9177707,68.7733294 98.3977781,69.56 C99.0644481,68.9199968 99.7311081,68.066672 100.397778,67 C101.064448,65.933328 101.641109,64.9033383 102.127778,63.91 C102.614447,62.9166617 103.207775,61.8333392 103.907778,60.66 C104.607782,59.4866608 105.304441,58.5133372 105.997778,57.74 C104.504437,56.8466622 102.917787,56.4 101.237778,56.4 C100.544441,56.4 99.8377817,56.4733326 99.1177781,56.62 C97.0511011,57.0600022 95.4777835,57.9599932 94.3977781,59.32 C93.7311081,60.1466708 93.3977781,60.9333296 93.3977781,61.68 C93.3977781,62.6933384 93.8844399,63.3533318 94.8577781,63.66 C95.2044465,63.7533338 95.5044435,63.8 95.7577781,63.8 C96.0111127,63.8 96.2944432,63.7600004 96.6077781,63.68 C96.921113,63.5999996 97.2311099,63.4133348 97.5377781,63.12 C98.1244477,62.5333304 98.4377779,61.9866692 98.4777781,61.48 C98.4911115,61.3599994 98.5677774,61.3166665 98.7077781,61.35 C98.8477788,61.3833335 98.9044449,61.4866658 98.8777781,61.66 C98.7444441,62.6333382 98.2311159,63.3733308 97.3377781,63.88 C96.7911087,64.1733348 96.2444475,64.32 95.6977781,64.32 L94.6577781,64.14 C93.6444397,63.7933316 92.9777797,63.1466714 92.6577781,62.2 C92.5244441,61.8399982 92.4577781,61.4800018 92.4577781,61.12 C92.4577781,60.386663 92.7311087,59.6600036 93.2777781,58.94 C94.4511173,57.3666588 96.5310965,56.3600022 99.5177781,55.92 C100.104448,55.8399996 100.684442,55.8 101.257778,55.8 C103.111121,55.8 104.87777,56.2399956 106.557778,57.12 C107.077781,56.519997 107.557776,56.0633349 107.997778,55.75 C108.43778,55.4366651 108.79111,55.28 109.057778,55.28 C109.204446,55.28 109.291111,55.3099997 109.317778,55.37 C109.344445,55.4300003 109.341112,55.4766665 109.307778,55.51 C109.274445,55.5433335 109.231112,55.56 109.177778,55.56 C108.95111,55.56 108.65778,55.7999976 108.297778,56.28 C107.937776,56.7600024 107.644446,57.2066646 107.417778,57.62 C108.844452,58.5666714 109.931108,59.7799926 110.677778,61.26 C111.277781,62.4466726 111.577778,63.739993 111.577778,65.14 C111.577778,66.873342 111.164449,68.2533282 110.337778,69.28 C109.657775,70.1200042 108.831116,70.7133316 107.857778,71.06 C106.697772,71.4733354 105.551117,71.68 104.417778,71.68 C102.124433,71.68 100.17112,71.213338 98.5577781,70.28 Z M99.0377781,69.92 C100.384452,70.720004 101.964436,71.12 103.777778,71.12 C105.884455,71.12 107.564439,70.520006 108.817778,69.32 C109.817783,68.3466618 110.317778,67.0000086 110.317778,65.28 C110.317778,64.0533272 110.077781,62.9000054 109.597778,61.82 C108.997775,60.4466598 108.111117,59.3000046 106.937778,58.38 C106.55111,58.980003 105.807784,60.1899909 104.707778,62.01 C103.607773,63.8300091 102.677782,65.306661 101.917778,66.44 C101.157774,67.573339 100.55778,68.3766643 100.117778,68.85 C99.6777759,69.3233357 99.3177795,69.6799988 99.0377781,69.92 Z M97.8777781,69.96 C96.3177703,69.2133296 95.3311135,68.7666674 94.9177781,68.62 C94.5044427,68.4733326 94.1011134,68.4 93.7077781,68.4 C93.3144428,68.4 93.0011126,68.5466652 92.7677781,68.84 C92.5344436,69.1333348 92.4177781,69.3966655 92.4177781,69.63 C92.4177781,69.8633345 92.4711109,70.0866656 92.5777781,70.3 C92.8577795,70.8733362 93.4311071,71.16 94.2977781,71.16 C95.5777845,71.16 96.7711059,70.760004 97.8777781,69.96 Z M117.422223,62.98 C117.422223,63.580003 117.042226,64.146664 116.282223,64.68 C116.548891,64.6933334 116.905554,64.7 117.352223,64.7 C117.798891,64.7 118.362219,64.666667 119.042223,64.6 C119.068889,64.6400002 119.082223,64.7466658 119.082223,64.92 C119.082223,65.0933342 119.002223,65.3499983 118.842223,65.69 C118.682222,66.0300017 118.53889,66.3233321 118.412223,66.57 C118.285555,66.8166679 118.165556,67.0499989 118.052223,67.27 C117.938889,67.4900011 117.812223,67.7599984 117.672223,68.08 C117.532222,68.4000016 117.415556,68.693332 117.322223,68.96 C116.988888,69.9733384 117.04222,70.48 117.482223,70.48 C118.042225,70.48 118.868884,69.3666778 119.962223,67.14 C120.055556,66.9666658 120.132222,66.8999998 120.192223,66.94 C120.252223,66.9800002 120.282223,67.0299997 120.282223,67.09 C120.282223,67.1500003 120.195557,67.3566649 120.022223,67.71 C119.848888,68.0633351 119.662224,68.4266648 119.462223,68.8 C119.262222,69.1733352 118.948891,69.6066642 118.522223,70.1 C118.015553,70.7133364 117.528892,71.02 117.062223,71.02 C116.54222,71.02 116.182224,70.7066698 115.982223,70.08 C115.942222,69.9599994 115.922223,69.7800012 115.922223,69.54 C115.922223,69.2999988 115.998888,68.980002 116.152223,68.58 C116.305557,68.179998 116.548888,67.6933362 116.882223,67.12 C117.215558,66.5466638 117.402222,66.2100005 117.442223,66.11 C117.482223,66.0099995 117.502223,65.9133338 117.502223,65.82 C117.502223,65.4066646 116.968895,65.1866668 115.902223,65.16 L115.662223,65.8 C114.822218,68.000011 114.01556,69.4733296 113.242223,70.22 C113.108889,70.3400006 113.042223,70.300001 113.042223,70.1 C113.042223,70.0599998 113.055556,70.0133336 113.082223,69.96 C113.828893,68.9733284 114.475553,67.8066734 115.022223,66.46 C115.568892,65.1133266 115.948888,63.8333394 116.162223,62.62 C116.242223,62.2066646 116.428888,62 116.722223,62 C117.015557,62 117.228889,62.1866648 117.362223,62.56 C117.402223,62.6800006 117.422223,62.8199992 117.422223,62.98 Z M123.766667,71.28 C123.539999,71.28 123.366667,71.2100007 123.246667,71.07 C123.126666,70.9299993 123.066667,70.8066672 123.066667,70.7 C123.066667,70.3399982 123.173332,70.0733342 123.386667,69.9 C123.600001,69.7266658 123.819999,69.64 124.046667,69.64 C124.273335,69.64 124.446666,69.7099993 124.566667,69.85 C124.686667,69.9900007 124.746667,70.1133328 124.746667,70.22 C124.746667,70.3266672 124.733334,70.4499993 124.706667,70.59 C124.68,70.7300007 124.573334,70.8799992 124.386667,71.04 C124.199999,71.2000008 123.993335,71.28 123.766667,71.28 Z M152.835556,67.96 C152.755555,67.5066644 152.702222,67.1333348 152.675556,66.84 C152.648889,66.5466652 152.635556,66.2433349 152.635556,65.93 C152.635556,65.6166651 152.688888,65.4400002 152.795556,65.4 L152.855556,65.4 C153.255558,65.4 153.99555,65.1266694 155.075556,64.58 C156.155561,64.0333306 157.385549,63.2966713 158.765556,62.37 C160.145563,61.4433287 161.585548,60.2566739 163.085556,58.81 C164.585563,57.3633261 165.822217,55.9000074 166.795556,54.42 C166.96889,54.1666654 167.115555,54.04 167.235556,54.04 C167.275556,54.04 167.318889,54.0599998 167.365556,54.1 C167.412223,54.1400002 167.435556,54.2066662 167.435556,54.3 C167.435556,54.3933338 167.388889,54.5199992 167.295556,54.68 C165.775548,57.2000126 163.635569,59.5699889 160.875556,61.79 C158.115542,64.0100111 155.808898,65.353331 153.955556,65.82 C153.928889,65.8600002 153.915556,65.9433327 153.915556,66.07 C153.915556,66.1966673 153.928889,66.4066652 153.955556,66.7 C153.982222,66.9933348 154.112221,67.5566625 154.345556,68.39 C154.57889,69.2233375 154.848887,69.9933298 155.155556,70.7 C156.062227,72.7800104 157.255548,73.82 158.735556,73.82 C159.588893,73.82 160.405552,73.6400018 161.185556,73.28 C161.96556,72.9199982 162.528887,72.4000034 162.875556,71.72 C162.955556,71.5333324 163.055555,71.44 163.175556,71.44 C163.295556,71.44 163.282223,71.5866652 163.135556,71.88 C162.775554,72.613337 162.14556,73.2633305 161.245556,73.83 C160.345551,74.3966695 159.422227,74.68 158.475556,74.68 C157.528884,74.68 156.63556,74.3333368 155.795556,73.64 C154.328882,72.439994 153.342225,70.5466796 152.835556,67.96 Z M156.185556,55.67 C156.485557,55.3033315 156.745555,55.0900003 156.965556,55.03 C157.185557,54.9699997 157.398888,54.94 157.605556,54.94 C157.812223,54.94 157.968888,55.0266658 158.075556,55.2 C158.182223,55.3733342 158.235556,55.5466658 158.235556,55.72 C158.235556,55.8933342 158.10889,56.0933322 157.855556,56.32 C157.428887,56.7066686 156.75556,56.9466662 155.835556,57.04 C155.075552,58.4133402 154.202227,60.6199848 153.215556,63.66 C152.855554,64.7666722 152.372225,65.9433271 151.765556,67.19 C151.158886,68.4366729 150.508892,69.526662 149.815556,70.46 C149.122219,71.393338 148.205561,72.2166631 147.065556,72.93 C145.92555,73.6433369 144.635563,74.1066656 143.195556,74.32 C142.728887,74.386667 142.212225,74.42 141.645556,74.42 C141.078886,74.42 140.462226,74.3466674 139.795556,74.2 C137.355543,73.6399972 135.782226,72.4400092 135.075556,70.6 C134.862221,70.0399972 134.755556,69.4833361 134.755556,68.93 C134.755556,68.3766639 134.832222,67.8066696 134.985556,67.22 C135.13889,66.6333304 135.47222,66.1100023 135.985556,65.65 C136.498892,65.1899977 136.922221,64.9400002 137.255556,64.9 C137.42889,64.8733332 137.515556,64.9133328 137.515556,65.02 C137.515556,65.086667 137.475556,65.1399998 137.395556,65.18 C137.075554,65.3266674 136.688891,65.6733306 136.235556,66.22 C135.648886,66.9400036 135.355556,67.833328 135.355556,68.9 C135.355556,69.9933388 135.688886,70.8799966 136.355556,71.56 C137.168893,72.4133376 138.128883,72.9466656 139.235556,73.16 C139.995559,73.3066674 140.62222,73.38 141.115556,73.38 C141.608891,73.38 142.04222,73.3266672 142.415556,73.22 C143.508894,72.9666654 144.532218,72.5700027 145.485556,72.03 C146.438894,71.4899973 147.238886,70.9166697 147.885556,70.31 C148.532226,69.7033303 149.152219,68.9766709 149.745556,68.13 C150.338892,67.2833291 150.805554,66.5400032 151.145556,65.9 C151.485557,65.2599968 152.088885,63.9600098 152.955556,62 C153.822227,60.0399902 154.582219,58.4000066 155.235556,57.08 C155.035555,57.1066668 154.462227,57.1599996 153.515556,57.24 C151.76888,57.3866674 150.408894,57.5999986 149.435556,57.88 C147.60888,58.3866692 146.308893,59.3599928 145.535556,60.8 C145.16222,61.4933368 144.975556,62.1666634 144.975556,62.82 C144.975556,63.1666684 145.028888,63.506665 145.135556,63.84 C145.42889,64.7333378 146.008885,65.18 146.875556,65.18 C147.968894,65.18 148.735553,64.613339 149.175556,63.48 C149.38889,62.9333306 149.495556,62.4800018 149.495556,62.12 C149.495556,61.7599982 149.482222,61.5066674 149.455556,61.36 C149.428889,61.2133326 149.448889,61.14 149.515556,61.14 C149.622223,61.1666668 149.715555,61.2533326 149.795556,61.4 C149.915556,61.6800014 149.975556,62.0099981 149.975556,62.39 C149.975556,62.7700019 149.84889,63.2066642 149.595556,63.7 C149.195554,64.5400042 148.635559,65.093332 147.915556,65.36 C147.475553,65.5200008 147.062224,65.6 146.675556,65.6 C146.008886,65.6 145.408892,65.3600024 144.875556,64.88 C144.155552,64.2399968 143.795556,63.4066718 143.795556,62.38 C143.795556,60.9266594 144.475549,59.7066716 145.835556,58.72 C147.088895,57.786662 148.90221,57.1933346 151.275556,56.94 C151.995559,56.8599996 152.818884,56.7900003 153.745556,56.73 C154.672227,56.6699997 155.262221,56.6266668 155.515556,56.6 C155.662223,56.3466654 155.885554,56.0366685 156.185556,55.67 Z M157.615556,55.72 C157.615556,55.5733326 157.555556,55.5 157.435556,55.5 C157.288888,55.5 157.13889,55.5633327 156.985556,55.69 C156.832222,55.8166673 156.568891,56.0999978 156.195556,56.54 C156.582224,56.4866664 156.875555,56.4066672 157.075556,56.3 C157.435557,56.1266658 157.615556,55.9333344 157.615556,55.72 Z M164.76,64 C165.733338,64 166.22,64.6133272 166.22,65.84 C166.22,66.4000028 166.073335,66.9999968 165.78,67.64 C165.406665,68.506671 164.84667,69.2933298 164.1,70 C164.273334,70.333335 164.586664,70.5 165.04,70.5 C165.400002,70.5 165.739998,70.3200018 166.06,69.96 C166.460002,69.5466646 166.746666,69.1833349 166.92,68.87 C167.093334,68.5566651 167.22,68.3266674 167.3,68.18 C167.38,68.0333326 167.483333,67.8233347 167.61,67.55 C167.736667,67.2766653 167.813333,67.1100003 167.84,67.05 C167.866667,66.9899997 167.913333,66.96 167.98,66.96 C168.113334,66.9466666 168.18,66.9933328 168.18,67.1 C168.18,67.1400002 168.166667,67.1866664 168.14,67.24 L168.02,67.52 C167.94,67.7066676 167.88,67.8399996 167.84,67.92 C167.8,68.0000004 167.73,68.1433323 167.63,68.35 C167.53,68.5566677 167.443334,68.7199994 167.37,68.84 C167.296666,68.9600006 167.196667,69.119999 167.07,69.32 C166.943333,69.520001 166.83,69.6799994 166.73,69.8 C166.629999,69.9200006 166.506667,70.0533326 166.36,70.2 C166.213333,70.3466674 166.073334,70.4599996 165.94,70.54 C165.606665,70.740001 165.293335,70.84 165,70.84 C164.453331,70.84 164.026668,70.6666684 163.72,70.32 C163.106664,70.7733356 162.540003,71 162.02,71 C161.046662,71 160.56,70.3866728 160.56,69.16 C160.56,68.5999972 160.706665,68.0000032 161,67.36 C161.400002,66.426662 161.96333,65.6333366 162.69,64.98 C163.41667,64.3266634 164.106663,64 164.76,64 Z M164.98,64.62 C164.619998,64.62 164.193336,64.8599976 163.7,65.34 C163.206664,65.8200024 162.766669,66.4733292 162.38,67.3 C161.913331,68.2600048 161.68,69.0466636 161.68,69.66 C161.68,70.2733364 161.913331,70.58 162.38,70.58 C162.713335,70.58 163.086665,70.4000018 163.5,70.04 C163.286666,69.7333318 163.18,69.4066684 163.18,69.06 C163.206667,68.4866638 163.439998,68.2 163.88,68.2 C164.053334,68.2 164.196666,68.2599994 164.31,68.38 C164.423334,68.5000006 164.48,68.6099995 164.48,68.71 C164.48,68.8100005 164.466667,68.9133328 164.44,69.02 C164.666668,68.686665 164.926665,68.2133364 165.22,67.6 C165.553335,66.9199966 165.72,66.2533366 165.72,65.6 C165.72,64.9466634 165.473336,64.62 164.98,64.62 Z M170.984444,67.69 C170.877777,68.0033349 170.787778,68.3033319 170.714444,68.59 C170.641111,68.8766681 170.604444,69.1633319 170.604444,69.45 C170.604444,69.7366681 170.67111,70.0033321 170.804444,70.25 C170.937778,70.4966679 171.15111,70.62 171.444444,70.62 C171.924447,70.62 172.391109,70.2966699 172.844444,69.65 C173.29778,69.0033301 173.777775,68.180005 174.284444,67.18 C174.391112,66.9933324 174.491111,66.9199998 174.584444,66.96 C174.651111,67.0133336 174.664445,67.0833329 174.624444,67.17 C174.584444,67.2566671 174.501112,67.4433319 174.374444,67.73 C174.247777,68.0166681 174.154445,68.2166661 174.094444,68.33 C174.034444,68.4433339 173.927778,68.6433319 173.774444,68.93 C173.62111,69.2166681 173.487778,69.4299993 173.374444,69.57 C173.26111,69.7100007 173.107779,69.8899989 172.914444,70.11 C172.72111,70.3300011 172.537779,70.4933328 172.364444,70.6 C171.897775,70.8933348 171.45778,71.04 171.044444,71.04 C170.631109,71.04 170.311112,70.9500009 170.084444,70.77 C169.857777,70.5899991 169.721111,70.3966677 169.674444,70.19 C169.627777,69.9833323 169.604444,69.8000008 169.604444,69.64 C169.604444,69.4799992 169.611111,69.2733346 169.624444,69.02 C169.664445,68.5933312 169.747777,68.180002 169.874444,67.78 C170.001112,67.379998 170.071111,67.1533336 170.084444,67.1 C170.391113,65.9933278 170.827775,64.7866732 171.394444,63.48 C171.961114,62.1733268 172.441109,61.1900033 172.834444,60.53 C173.22778,59.8699967 173.537777,59.4200012 173.764444,59.18 C174.21778,58.6999976 174.664442,58.46 175.104444,58.46 C175.411113,58.46 175.617777,58.6799978 175.724444,59.12 C175.737778,59.2000004 175.744444,59.2999994 175.744444,59.42 C175.744444,59.8733356 175.584446,60.4466632 175.264444,61.14 C174.117772,63.6866794 172.751119,65.6866594 171.164444,67.14 C171.151111,67.1933336 171.091112,67.3766651 170.984444,67.69 Z M173.344444,63.88 C174.011114,62.8266614 174.501109,61.9300037 174.814444,61.19 C175.127779,60.4499963 175.284444,59.946668 175.284444,59.68 C175.284444,59.413332 175.237778,59.28 175.144444,59.28 C175.01111,59.28 174.75778,59.5433307 174.384444,60.07 C174.011109,60.5966693 173.507781,61.5433265 172.874444,62.91 C172.241108,64.2766735 171.724446,65.4733282 171.324444,66.5 C172.004448,65.8066632 172.677774,64.9333386 173.344444,63.88 Z M176.048889,69.4 C176.048889,68.2933278 176.582217,66.440013 177.648889,63.84 L176.608889,63.84 C176.542222,63.84 176.498889,63.8033337 176.478889,63.73 C176.458889,63.6566663 176.465555,63.5833337 176.498889,63.51 C176.532222,63.4366663 176.582222,63.4 176.648889,63.4 L177.848889,63.4 C178.328891,62.3466614 178.775553,61.4666702 179.188889,60.76 C179.602224,60.0533298 179.98222,59.5766679 180.328889,59.33 C180.675557,59.0833321 180.925555,58.96 181.078889,58.96 C181.232223,58.96 181.342222,58.9733332 181.408889,59 C181.715557,59.1466674 181.868889,59.4499977 181.868889,59.91 C181.868889,60.3700023 181.715557,60.9266634 181.408889,61.58 C181.102221,62.2333366 180.802224,62.8399972 180.508889,63.4 L181.468889,63.4 C181.535556,63.4 181.578889,63.4366663 181.598889,63.51 C181.618889,63.5833337 181.612222,63.6566663 181.578889,63.73 C181.545555,63.8033337 181.495556,63.84 181.428889,63.84 L180.268889,63.84 C179.535552,65.0800062 178.648894,66.1799952 177.608889,67.14 L177.148889,69.18 C177.108889,69.3533342 177.088889,69.5233325 177.088889,69.69 C177.088889,69.8566675 177.135555,70.0266658 177.228889,70.2 C177.322223,70.3733342 177.468888,70.46 177.668889,70.46 C177.895557,70.46 178.148887,70.3800008 178.428889,70.22 C179.068892,69.7399976 179.775552,68.733341 180.548889,67.2 C180.602222,67.0799994 180.665555,67.0066668 180.738889,66.98 C180.812222,66.9533332 180.855555,66.9699997 180.868889,67.03 C180.882222,67.0900003 180.862222,67.186666 180.808889,67.32 C180.368887,68.2400046 180.022223,68.8933314 179.768889,69.28 C179.048885,70.4400058 178.282226,71.02 177.468889,71.02 C177.055553,71.02 176.715557,70.8666682 176.448889,70.56 C176.182221,70.2533318 176.048889,69.866669 176.048889,69.4 Z M180.068889,63.4 C180.948893,61.8266588 181.388889,60.7333364 181.388889,60.12 C181.388889,59.853332 181.342223,59.72 181.248889,59.72 C181.102221,59.72 180.87889,59.9333312 180.578889,60.36 C180.278887,60.7866688 179.775559,61.799992 179.068889,63.4 L180.068889,63.4 Z M179.808889,63.84 L178.868889,63.84 C178.708888,64.2133352 178.348892,65.099993 177.788889,66.5 C178.508892,65.7533296 179.182219,64.8666718 179.808889,63.84 Z M182.093333,69.84 C182.093333,69.2666638 182.339997,68.5733374 182.833333,67.76 C182.619999,67.76 182.559999,67.6533344 182.653333,67.44 L183.013333,66.74 C183.466669,65.873329 183.839998,65.140003 184.133333,64.54 C184.266667,64.2599986 184.526665,64.12 184.913333,64.12 L186.133333,64.12 C185.653331,64.4666684 185.170002,65.1366617 184.683333,66.13 C184.196664,67.1233383 183.820001,67.9033305 183.553333,68.47 C183.286665,69.0366695 183.153333,69.4666652 183.153333,69.76 C183.153333,70.0533348 183.203333,70.2599994 183.303333,70.38 C183.403334,70.5000006 183.539999,70.56 183.713333,70.56 C183.966668,70.56 184.319998,70.293336 184.773333,69.76 C185.480003,68.9333292 186.473327,67.1933466 187.753333,64.54 C187.900001,64.2599986 188.159998,64.12 188.533333,64.12 L189.613333,64.12 C189.319998,64.3466678 189.090001,64.5799988 188.923333,64.82 C188.756666,65.0600012 188.526668,65.4866636 188.233333,66.1 C187.433329,67.700008 186.986667,68.7599974 186.893333,69.28 C186.853333,69.4666676 186.833333,69.6399992 186.833333,69.8 C186.833333,70.2266688 186.979998,70.4533332 187.273333,70.48 C187.993337,70.48 188.879995,69.3666778 189.933333,67.14 C190.013334,66.9533324 190.093333,66.8799998 190.173333,66.92 C190.253334,66.9600002 190.293333,67.013333 190.293333,67.08 C190.293333,67.146667 190.233334,67.2999988 190.113333,67.54 L189.763333,68.24 C189.649999,68.4666678 189.476668,68.7766647 189.243333,69.17 C189.009999,69.5633353 188.793334,69.8733322 188.593333,70.1 C188.073331,70.6866696 187.563336,70.98 187.063333,70.98 C186.563331,70.98 186.220001,70.7600022 186.033333,70.32 C185.953333,70.119999 185.913333,69.8666682 185.913333,69.56 C185.913333,69.2533318 185.979999,68.8733356 186.113333,68.42 C185.139995,70.1266752 184.240004,70.98 183.413333,70.98 C182.69333,70.98 182.273334,70.680003 182.153333,70.08 C182.113333,70.013333 182.093333,69.9333338 182.093333,69.84 Z M198.217777,64.44 C196.577769,67.3200144 195.757777,69.1999956 195.757777,70.08 C195.757777,70.4266684 195.884443,70.6 196.137777,70.6 C196.817781,70.6 197.731105,69.4466782 198.877777,67.14 C198.957778,66.9533324 199.037777,66.8799998 199.117777,66.92 C199.197778,66.9600002 199.237777,67.013333 199.237777,67.08 C199.237777,67.146667 199.211111,67.2266662 199.157777,67.32 C198.451107,68.7466738 197.854447,69.7299973 197.367777,70.27 C196.881108,70.8100027 196.394447,71.08 195.907777,71.08 C195.421108,71.08 195.051112,70.8933352 194.797777,70.52 C194.664443,70.3466658 194.597777,70.1100015 194.597777,69.81 C194.597777,69.5099985 194.664443,69.1466688 194.797777,68.72 C194.931111,68.2933312 195.297774,67.6000048 195.897777,66.64 C196.044445,66.3999988 196.117777,66.2100007 196.117777,66.07 C196.117777,65.9299993 196.004445,65.86 195.777777,65.86 C195.55111,65.86 195.117781,66.159997 194.477777,66.76 C193.517773,67.6400044 192.591115,68.9599912 191.697777,70.72 C191.617777,70.853334 191.527778,70.9366665 191.427777,70.97 C191.327777,71.0033335 191.131112,71.0266666 190.837777,71.04 C190.544443,71.0533334 190.351111,71.0866664 190.257777,71.14 C190.471112,70.7133312 190.891108,69.8400066 191.517777,68.52 C192.637783,66.186655 193.371109,64.853335 193.717777,64.52 C193.877778,64.3599992 194.097776,64.28 194.377777,64.28 C194.431111,64.28 194.567776,64.2999998 194.787777,64.34 C195.007779,64.3800002 195.17111,64.3866668 195.277777,64.36 C194.784442,64.626668 193.977783,65.8799888 192.857777,68.12 C193.484447,67.3466628 194.054442,66.7300023 194.567777,66.27 C195.081113,65.8099977 195.697774,65.3833353 196.417777,64.99 C197.137781,64.5966647 197.664442,64.4 197.997777,64.4 C198.077778,64.4 198.15111,64.4133332 198.217777,64.44 Z M204.762222,64 C205.73556,64 206.222222,64.6133272 206.222222,65.84 C206.222222,66.4000028 206.075557,66.9999968 205.782222,67.64 C205.408887,68.506671 204.848892,69.2933298 204.102222,70 C204.275556,70.333335 204.588886,70.5 205.042222,70.5 C205.402224,70.5 205.74222,70.3200018 206.062222,69.96 C206.462224,69.5466646 206.748888,69.1833349 206.922222,68.87 C207.095556,68.5566651 207.222221,68.3266674 207.302222,68.18 C207.382222,68.0333326 207.485555,67.8233347 207.612222,67.55 C207.738889,67.2766653 207.815555,67.1100003 207.842222,67.05 C207.868889,66.9899997 207.915555,66.96 207.982222,66.96 C208.115556,66.9466666 208.182222,66.9933328 208.182222,67.1 C208.182222,67.1400002 208.168889,67.1866664 208.142222,67.24 L208.022222,67.52 C207.942221,67.7066676 207.882222,67.8399996 207.842222,67.92 C207.802222,68.0000004 207.732222,68.1433323 207.632222,68.35 C207.532221,68.5566677 207.445556,68.7199994 207.372222,68.84 C207.298888,68.9600006 207.198889,69.119999 207.072222,69.32 C206.945555,69.520001 206.832222,69.6799994 206.732222,69.8 C206.632221,69.9200006 206.508889,70.0533326 206.362222,70.2 C206.215554,70.3466674 206.075556,70.4599996 205.942222,70.54 C205.608887,70.740001 205.295557,70.84 205.002222,70.84 C204.455552,70.84 204.02889,70.6666684 203.722222,70.32 C203.108885,70.7733356 202.542224,71 202.022222,71 C201.048884,71 200.562222,70.3866728 200.562222,69.16 C200.562222,68.5999972 200.708887,68.0000032 201.002222,67.36 C201.402224,66.426662 201.965552,65.6333366 202.692222,64.98 C203.418892,64.3266634 204.108885,64 204.762222,64 Z M204.982222,64.62 C204.62222,64.62 204.195558,64.8599976 203.702222,65.34 C203.208886,65.8200024 202.76889,66.4733292 202.382222,67.3 C201.915553,68.2600048 201.682222,69.0466636 201.682222,69.66 C201.682222,70.2733364 201.915553,70.58 202.382222,70.58 C202.715557,70.58 203.088886,70.4000018 203.502222,70.04 C203.288887,69.7333318 203.182222,69.4066684 203.182222,69.06 C203.208889,68.4866638 203.44222,68.2 203.882222,68.2 C204.055556,68.2 204.198888,68.2599994 204.312222,68.38 C204.425556,68.5000006 204.482222,68.6099995 204.482222,68.71 C204.482222,68.8100005 204.468889,68.9133328 204.442222,69.02 C204.66889,68.686665 204.928887,68.2133364 205.222222,67.6 C205.555557,66.9199966 205.722222,66.2533366 205.722222,65.6 C205.722222,64.9466634 205.475558,64.62 204.982222,64.62 Z M215.386666,64.02 L215.286666,64.38 C214.606663,66.5000106 213.980002,68.0466618 213.406666,69.02 C212.566662,70.4333404 211.686671,71.14 210.766666,71.14 C210.019996,71.14 209.646666,70.7800036 209.646666,70.06 C209.646666,69.5133306 209.846664,68.6666724 210.246666,67.52 C210.113332,67.7333344 210.01,67.8033337 209.936666,67.73 C209.863333,67.6566663 209.846666,67.5666672 209.886666,67.46 L210.246666,66.78 C210.500001,66.2599974 210.626666,65.7400026 210.626666,65.22 C210.626666,64.6999974 210.520001,64.3933338 210.306666,64.3 C211.10667,64.166666 211.573332,64.1033333 211.706666,64.11 C211.84,64.1166667 211.923333,64.1733328 211.956666,64.28 C211.99,64.3866672 212.006666,64.506666 212.006666,64.64 C212.006666,65.4533374 211.796668,66.4133278 211.376666,67.52 C210.956664,68.6266722 210.746666,69.3699981 210.746666,69.75 C210.746666,70.1300019 210.806666,70.3499997 210.926666,70.41 C211.046667,70.4700003 211.166666,70.5 211.286666,70.5 C211.633335,70.5 212.026664,70.2200028 212.466666,69.66 C212.906668,69.0999972 213.346664,68.2733388 213.786666,67.18 C213.599999,66.7533312 213.506666,66.3766683 213.506666,66.05 C213.506666,65.7233317 213.546666,65.4333346 213.626666,65.18 C213.866667,64.4199962 214.246664,63.9466676 214.766666,63.76 C214.873333,63.7199998 214.973332,63.7 215.066666,63.7 C215.280001,63.7 215.386666,63.8066656 215.386666,64.02 Z M222.611111,67.21 C222.171108,68.0566709 221.907778,68.6899979 221.821111,69.11 C221.734443,69.5300021 221.691111,69.8699987 221.691111,70.13 C221.691111,70.3900013 221.79111,70.52 221.991111,70.52 C222.244445,70.52 222.557775,70.286669 222.931111,69.82 C223.47778,69.1399966 224.017775,68.2533388 224.551111,67.16 C224.604444,67.0399994 224.664444,66.9733334 224.731111,66.96 C224.837778,66.9199998 224.891111,66.9599994 224.891111,67.08 C224.891111,67.146667 224.871111,67.2266662 224.831111,67.32 C223.604438,69.8000124 222.571115,71.04 221.731111,71.04 C221.344442,71.04 221.031112,70.8533352 220.791111,70.48 C220.67111,70.279999 220.611111,70.013335 220.611111,69.68 C220.611111,69.346665 220.677777,68.9400024 220.811111,68.46 C219.744439,70.1800086 218.824448,71.04 218.051111,71.04 C217.837776,71.04 217.644445,70.973334 217.471111,70.84 C217.071109,70.5599986 216.871111,70.0800034 216.871111,69.4 C216.871111,68.0933268 217.437772,66.7666734 218.571111,65.42 C219.211114,64.6733296 219.997773,64.1866678 220.931111,63.96 C221.184445,63.893333 221.424443,63.86 221.651111,63.86 C222.264447,63.86 222.784442,64.0733312 223.211111,64.5 C223.344445,64.6466674 223.384444,64.786666 223.331111,64.92 C223.277777,65.053334 223.164445,65.1066668 222.991111,65.08 C222.844443,64.5999976 222.524446,64.36 222.031111,64.36 C221.457774,64.36 220.751115,64.8133288 219.911111,65.72 C219.431108,66.253336 218.984446,66.8799964 218.571111,67.6 C218.051108,68.466671 217.791111,69.1599974 217.791111,69.68 C217.791111,70.2000026 217.957776,70.46 218.291111,70.46 C219.091115,70.46 220.137771,69.2333456 221.431111,66.78 C221.684445,66.2866642 221.897776,65.9500009 222.071111,65.77 C222.244445,65.5899991 222.464443,65.5 222.731111,65.5 C222.784444,65.5 222.921109,65.5199998 223.141111,65.56 C223.361112,65.6000002 223.524443,65.6066668 223.631111,65.58 C223.391109,65.8200012 223.051113,66.3633291 222.611111,67.21 Z" id="By-Dr.-Koltunova" fill="url(#linearGradient-2)"></path>
        </g>
    </g>
</svg>