<?xml version="1.0" encoding="UTF-8"?>
<svg width="275px" height="79px" viewBox="0 0 275 79" version="1.1" xmlns="http://www.w3.org/2000/svg" xmlns:xlink="http://www.w3.org/1999/xlink">
    <!-- Generator: Sketch 43.2 (39069) - http://www.bohemiancoding.com/sketch -->
    <title>Artboard 2</title>
    <desc>Created with Sketch.</desc>
    <defs>
        <linearGradient x1="0%" y1="9.39503864%" x2="52.8878869%" y2="195.539236%" id="linearGradient-1">
            <stop stop-color="#C2986E" offset="0%"></stop>
            <stop stop-color="#BF9B30" offset="100%"></stop>
        </linearGradient>
    </defs>
    <g id="Page-1" stroke="none" stroke-width="1" fill="none" fill-rule="evenodd">
        <g id="Artboard-2">
            <g id="Group-3-Copy-4" transform="translate(0.000000, 9.000000)">
                <g id="Group">
                    <g id="1" fill="url(#linearGradient-1)">
                        <path d="M16.6490323,1.65419355 C20.0554839,1.78193548 23.5045161,1.78193548 26.6554839,1.65419355 L26.6554839,3.01677419 C24.1858065,3.22967742 22.6103226,3.52774194 22.6103226,4.59225806 L22.6103226,28.0967742 L21.12,28.0967742 L6.34451613,6.08258065 L6.34451613,25.1587097 C6.34451613,26.2232258 7.92,26.5212903 10.6451613,26.7341935 L10.6451613,28.0967742 C7.23870968,27.9690323 3.78967742,27.9690323 0.638709677,28.0967742 L0.638709677,26.7341935 C3.15096774,26.5212903 4.68387097,26.2232258 4.68387097,25.1587097 L4.68387097,4.97548387 C4.68387097,3.91096774 3.36387097,3.18709677 1.10709677,3.01677419 L1.10709677,1.65419355 C3.83225806,1.78193548 6.55741935,1.78193548 9.32516129,1.65419355 L20.9070968,19.1548387 L20.9070968,4.59225806 C20.9070968,3.52774194 19.4167742,3.22967742 16.6490323,3.01677419 L16.6490323,1.65419355 L16.6490323,1.65419355 Z M41.0051613,0.972903226 C48.2012903,0.972903226 53.3535484,6.76387097 53.3535484,14.9393548 C53.3535484,22.8167742 48.2864516,28.6929032 41.1329032,28.6929032 C33.9367742,28.6929032 28.7845161,22.9019355 28.7845161,14.7264516 C28.7845161,6.80645161 33.8516129,0.972903226 41.0051613,0.972903226 Z M41.6864516,27.16 C45.0929032,27.16 48.0309677,24.0516129 48.0309677,16.0890323 C48.0309677,8.29677419 44.88,2.50580645 40.323871,2.50580645 C37.0451613,2.50580645 34.1070968,5.5716129 34.1070968,13.5341935 C34.1070968,21.3264516 37.2580645,27.16 41.6864516,27.16 L41.6864516,27.16 Z M67.6180645,28.48 L58.3780645,4.54967742 C57.9948387,3.57032258 57.5690323,3.18709677 55.2696774,3.01677419 L55.2696774,1.65419355 C59.0167742,1.78193548 62.7212903,1.78193548 66.5109677,1.65419355 L66.5109677,3.01677419 C64.1690323,3.18709677 63.1896774,3.57032258 63.5729032,4.54967742 L70.2154839,21.9651613 L76.1767742,4.54967742 C76.56,3.48516129 75.0270968,3.18709677 72.6851613,3.01677419 L72.6851613,1.65419355 C75.7083871,1.78193548 78.6890323,1.78193548 81.6696774,1.65419355 L81.6696774,3.01677419 C79.4129032,3.18709677 78.2632258,3.48516129 77.88,4.54967742 L69.5341935,28.48 L67.6180645,28.48 L67.6180645,28.48 Z M105.898065,23.4980645 C106.707097,25.6696774 107.090323,26.5212903 110.070968,26.7341935 L110.070968,28.0967742 C106.23871,27.9690323 102.27871,27.9690323 98.4464516,28.0967742 L98.4464516,26.7341935 C101.299355,26.5212903 101.64,26.0529032 101.00129,24.3496774 L99.0851613,19.1548387 L90.3987097,19.1548387 L88.5677419,24.52 C88.0567742,26.1380645 89.6748387,26.5212903 92.4,26.7341935 L92.4,28.0967742 C89.2916129,27.9690323 85.6296774,27.9690323 82.5212903,28.0967742 L82.5212903,26.7341935 C85.3316129,26.5212903 86.396129,25.84 87.0774194,23.8812903 L94.6993548,1.44129032 L97.5948387,1.44129032 L105.898065,23.4980645 Z M90.8670968,17.6645161 L98.5316129,17.6645161 L94.5290323,6.84903226 L90.8670968,17.6645161 Z M136.939355,13.5341935 C142.091613,14.3432258 144.816774,16.9832258 144.816774,20.6451613 C144.816774,25.2864516 140.856774,28.0967742 133.277419,28.0967742 L120.929032,28.0967742 L120.929032,26.7341935 C123.228387,26.563871 123.952258,26.2658065 123.952258,25.2012903 L123.952258,5.10322581 C123.952258,3.95354839 123.313548,3.18709677 121.099355,3.01677419 L121.099355,1.65419355 C125.016774,1.82451613 128.465806,1.65419355 130.935484,1.65419355 C139.792258,1.65419355 141.92129,5.01806452 141.92129,8.08387097 C141.92129,10.2980645 140.643871,12.1290323 136.939355,13.5341935 L136.939355,13.5341935 Z M128.976774,3.18709677 L128.976774,13.9174194 C135.193548,12.9806452 137.024516,11.5754839 137.024516,8.08387097 C137.024516,5.40129032 135.534194,3.14451613 131.616774,3.14451613 C130.254194,3.14451613 129.658065,3.14451613 128.976774,3.18709677 L128.976774,3.18709677 Z M133.107097,26.5212903 C137.578065,26.5212903 139.664516,24.6051613 139.664516,20.7303226 C139.664516,17.2812903 137.492903,14.6412903 133.447742,14.6412903 L128.976774,15.3651613 L128.976774,25.1587097 C128.976774,26.2232258 129.104516,26.5212903 131.276129,26.5212903 L133.107097,26.5212903 L133.107097,26.5212903 Z M165.596129,21.0709677 L167.171613,21.0709677 C166.32,23.5406452 165.979355,25.7974194 165.851613,28.0541935 C159.209032,27.9690323 153.332903,27.9690323 146.945806,28.0541935 L146.945806,26.6490323 C149.245161,26.436129 149.969032,26.1380645 149.969032,25.0735484 L149.969032,4.54967742 C149.969032,3.48516129 149.245161,3.18709677 146.945806,3.01677419 L146.945806,1.65419355 L165.085161,1.65419355 C165.63871,1.65419355 165.723871,1.78193548 165.809032,2.42064516 L166.447742,7.23225806 L164.957419,7.23225806 L164.446452,6.33806452 C163.254194,4.12387097 162.189677,3.22967742 159.932903,3.22967742 L155.504516,3.22967742 C155.163871,3.22967742 154.993548,3.4 154.993548,3.74064516 L154.993548,13.7896774 L160.060645,13.7896774 C162.189677,13.7896774 162.658065,12.8103226 163.04129,11.0645161 L164.31871,11.0645161 C164.105806,13.4916129 164.105806,15.7058065 164.31871,18.0903226 L163.04129,18.0903226 C162.658065,16.3870968 162.189677,15.3651613 160.060645,15.3651613 L154.993548,15.3651613 L154.993548,25.9677419 C154.993548,26.2658065 155.163871,26.4787097 155.504516,26.4787097 L159.123871,26.4787097 C161.976774,26.4787097 163.296774,25.84 164.233548,23.8812903 L165.596129,21.0709677 Z M192.251613,23.4980645 C193.060645,25.6696774 193.443871,26.5212903 196.424516,26.7341935 L196.424516,28.0967742 C192.592258,27.9690323 188.632258,27.9690323 184.8,28.0967742 L184.8,26.7341935 C187.652903,26.5212903 187.993548,26.0529032 187.354839,24.3496774 L185.43871,19.1548387 L176.752258,19.1548387 L174.92129,24.52 C174.410323,26.1380645 176.028387,26.5212903 178.753548,26.7341935 L178.753548,28.0967742 C175.645161,27.9690323 171.983226,27.9690323 168.874839,28.0967742 L168.874839,26.7341935 C171.685161,26.5212903 172.749677,25.84 173.430968,23.8812903 L181.052903,1.44129032 L183.948387,1.44129032 L192.251613,23.4980645 Z M177.220645,17.6645161 L184.885161,17.6645161 L180.882581,6.84903226 L177.220645,17.6645161 Z M225.72,3.01677419 C223.420645,3.18709677 222.611613,3.52774194 222.611613,4.59225806 L222.611613,25.1587097 C222.611613,26.2232258 223.420645,26.563871 225.72,26.7341935 L225.72,28.0967742 C222.058065,27.9690323 219.418065,27.9690323 216.948387,28.0967742 L216.948387,26.7341935 C217.374194,26.3935484 217.587097,26.0103226 217.587097,25.1587097 L217.587097,23.4129032 C216.352258,25.84 213.797419,28.5225806 209.326452,28.5225806 C203.876129,28.5225806 200.597419,25.116129 200.597419,20.0490323 L200.597419,4.59225806 C200.597419,3.52774194 199.788387,3.18709677 197.489032,3.01677419 L197.489032,1.65419355 C201.150968,1.78193548 205.110968,1.78193548 208.772903,1.65419355 L208.772903,3.01677419 C206.473548,3.18709677 205.664516,3.52774194 205.664516,4.59225806 L205.664516,20.0490323 C205.664516,24.2219355 207.410323,26.8193548 210.646452,26.8193548 C214.052903,26.8193548 216.437419,23.8812903 217.587097,21.3690323 L217.587097,4.59225806 C217.587097,3.52774194 216.778065,3.18709677 214.52129,3.01677419 L214.52129,1.65419355 C218.183226,1.78193548 222.058065,1.78193548 225.72,1.65419355 L225.72,3.01677419 L225.72,3.01677419 Z M247.52129,1.31354839 L248.883871,1.31354839 L247.393548,7.10451613 L245.860645,7.10451613 C246.20129,3.99612903 245.732903,3.18709677 244.072258,3.18709677 L240.538065,3.18709677 L240.538065,25.1587097 C240.538065,26.2232258 241.347097,26.563871 243.646452,26.7341935 L243.646452,28.0967742 C239.941935,27.9690323 236.109677,27.9690323 232.405161,28.0967742 L232.405161,26.7341935 C234.704516,26.563871 235.513548,26.2232258 235.513548,25.1587097 L235.513548,3.18709677 L232.234839,3.18709677 C230.574194,3.18709677 230.105806,3.78322581 228.487742,7.10451613 L226.997419,7.10451613 L228.530323,1.31354839 L229.892903,1.31354839 C231.085161,1.6116129 231.809032,1.65419355 233.938065,1.65419355 L243.476129,1.65419355 C245.605161,1.65419355 246.329032,1.6116129 247.52129,1.31354839 L247.52129,1.31354839 Z M267.108387,1.65419355 C269.91871,1.73935484 272.729032,1.73935484 275.539355,1.65419355 L275.539355,3.01677419 C273.112258,3.14451613 272.218065,3.74064516 271.494194,5.10322581 L265.32,17.0683871 L265.32,25.1587097 C265.32,26.2232258 266.129032,26.563871 268.428387,26.6916129 L268.428387,28.0967742 C264.766452,27.9690323 260.891613,27.9690323 257.187097,28.0967742 L257.187097,26.7341935 C259.486452,26.563871 260.295484,26.2232258 260.295484,25.1587097 L260.295484,17.2387097 L253.354839,4.63483871 C252.886452,3.78322581 252.418065,3.14451613 250.16129,3.01677419 L250.16129,1.65419355 C253.908387,1.73935484 257.655484,1.73935484 261.36,1.65419355 L261.36,3.01677419 C259.103226,3.14451613 258.592258,3.78322581 259.060645,4.63483871 L264.596129,14.9819355 L269.748387,5.06064516 C270.472258,3.65548387 269.365161,3.14451613 267.108387,3.01677419 L267.108387,1.65419355 L267.108387,1.65419355 Z" id="Shape"></path>
                    </g>
                    <path d="M63.484445,53.56 C63.484445,52.7999962 63.1711148,52.42 62.544445,52.42 L62.384445,52.42 C62.1444438,52.4466668 62.0044452,52.4000006 61.964445,52.28 C61.9244448,52.1599994 61.9844442,52.0800002 62.144445,52.04 C62.3044458,51.9999998 62.4777774,51.9933332 62.664445,52.02 C63.3577818,52.1266672 63.8311104,52.4533306 64.084445,53 C64.2577792,53.333335 64.344445,53.6599984 64.344445,53.98 C64.344445,55.1266724 63.9244492,56.2533278 63.084445,57.36 C62.2444408,58.4800056 61.157785,59.04 59.824445,59.04 C59.3311092,59.04 58.9311132,58.9000014 58.624445,58.62 C58.3177768,58.3399986 58.164445,57.966669 58.164445,57.5 C58.164445,56.9399972 58.4844418,55.99334 59.124445,54.66 C58.0311062,56.726677 57.3244466,57.9133318 57.004445,58.22 C56.871111,58.3400006 56.804445,58.300001 56.804445,58.1 C56.804445,58.0599998 56.8177782,58.0133336 56.844445,57.96 C57.311114,57.3466636 58.2411047,55.6800136 59.634445,52.96 C61.0277853,50.2399864 62.0044422,48.4600042 62.564445,47.62 C63.0177806,46.9666634 63.4577762,46.64 63.884445,46.64 L64.004445,46.64 C64.0177784,46.64 64.1344439,46.6599998 64.354445,46.7 C64.5744461,46.7400002 64.7377778,46.7466668 64.844445,46.72 C64.4044428,47.186669 63.7111164,48.119993 62.764445,49.52 C60.4177666,53.0000174 59.244445,55.5999914 59.244445,57.32 C59.244445,58.0266702 59.4711094,58.4266662 59.924445,58.52 C59.9644452,58.5333334 60.0111114,58.54 60.064445,58.54 C60.4777804,58.54 60.9944419,58.1700037 61.614445,57.43 C62.2344481,56.6899963 62.744443,55.8466714 63.144445,54.9 C63.3711128,54.4066642 63.484445,53.960002 63.484445,53.56 Z M64.8288894,65.32 C64.2422198,65.32 63.788891,65.1966679 63.4688894,64.95 C63.1488878,64.7033321 62.9888894,64.4066684 62.9888894,64.06 C62.9888894,63.7133316 63.0888884,63.3200022 63.2888894,62.88 C63.6355578,62.1999966 64.2622182,61.6533354 65.1688894,61.24 C65.8488928,60.9199984 66.7488838,60.6233347 67.8688894,60.35 C68.988895,60.0766653 69.7088878,59.8933338 70.0288894,59.8 C70.5088918,58.9599958 71.0822194,57.4600108 71.7488894,55.3 C70.9755522,56.6600068 70.328892,57.6133306 69.8088894,58.16 C69.2888868,58.7066694 68.7622254,58.98 68.2288894,58.98 C67.5088858,58.98 67.08889,58.680003 66.9688894,58.08 C66.9155558,57.9866662 66.9022226,57.8466676 66.9288894,57.66 C66.9555562,57.4733324 66.9722227,57.3400004 66.9788894,57.26 C66.9855561,57.1799996 67.028889,57.0500009 67.1088894,56.87 C67.1888898,56.6899991 67.2422226,56.5600004 67.2688894,56.48 C67.4155568,56.1733318 67.5422222,55.9333342 67.6488894,55.76 C67.435555,55.76 67.3755556,55.6533344 67.4688894,55.44 L67.8288894,54.74 C68.282225,53.873329 68.6555546,53.140003 68.9488894,52.54 C69.0822234,52.2599986 69.3422208,52.12 69.7288894,52.12 L70.9488894,52.12 C70.9222226,52.1466668 70.8555566,52.1999996 70.7488894,52.28 C70.5088882,52.4400008 70.32889,52.6266656 70.2088894,52.84 C69.728887,53.6666708 69.128893,54.846659 68.4088894,56.38 C68.1155546,57.0066698 67.9688894,57.4666652 67.9688894,57.76 C67.9688894,58.0533348 68.0188889,58.2599994 68.1188894,58.38 C68.2188899,58.5000006 68.3555552,58.56 68.5288894,58.56 C68.782224,58.56 69.1355538,58.293336 69.5888894,57.76 C70.5355608,56.6533278 71.582217,54.9133452 72.7288894,52.54 C72.8755568,52.2599986 73.1355542,52.12 73.5088894,52.12 L74.5888894,52.12 C74.242221,52.3600012 73.9688904,52.6633315 73.7688894,53.03 C73.5688884,53.3966685 73.3522239,53.8933302 73.1188894,54.52 C72.8855549,55.1466698 72.5922245,55.9799948 72.2388894,57.02 C71.8855543,58.0600052 71.615557,58.8399974 71.4288894,59.36 C72.682229,58.9866648 73.6422194,58.3266714 74.3088894,57.38 C74.6022242,56.9666646 75.02222,56.2333386 75.5688894,55.18 C75.6622232,54.9933324 75.7455557,54.9199998 75.8188894,54.96 C75.8922231,55.0000002 75.9288894,55.053333 75.9288894,55.12 C75.9288894,55.186667 75.8188905,55.4433311 75.5988894,55.89 C75.3788883,56.3366689 75.1555572,56.7499981 74.9288894,57.13 C74.7022216,57.5100019 74.4088912,57.899998 74.0488894,58.3 C73.6888876,58.700002 73.2888916,59.0166655 72.8488894,59.25 C72.4088872,59.4833345 71.8222264,59.733332 71.0888894,60 C70.0622176,61.866676 69.0288946,63.2399956 67.9888894,64.12 C67.0155512,64.920004 65.9622284,65.32 64.8288894,65.32 Z M63.6688894,63.34 C63.522222,63.6333348 63.4488894,63.9033321 63.4488894,64.15 C63.4488894,64.3966679 63.5422218,64.586666 63.7288894,64.72 C63.915557,64.853334 64.148888,64.92 64.4288894,64.92 C65.2022266,64.92 66.028885,64.5233373 66.9088894,63.73 C67.7888938,62.9366627 68.5622194,62.0866712 69.2288894,61.18 L69.6688894,60.44 C67.4688784,61.0133362 66.0822256,61.4266654 65.5088894,61.68 C64.6555518,62.0533352 64.0422246,62.606663 63.6688894,63.34 Z M91.5977781,58.28 C90.3577719,59.280005 88.9844523,59.78 87.4777781,59.78 C85.7577695,59.78 84.6977801,59.3000048 84.2977781,58.34 C84.2044443,58.1133322 84.1577781,57.8500015 84.1577781,57.55 C84.1577781,57.2499985 84.3111099,56.9266684 84.6177781,56.58 C85.0977805,56.0333306 85.7644405,55.76 86.6177781,55.76 C87.1911143,55.76 87.7677752,55.8633323 88.3477781,56.07 C88.927781,56.2766677 89.9577707,56.7733294 91.4377781,57.56 C92.1044481,56.9199968 92.7711081,56.066672 93.4377781,55 C94.1044481,53.933328 94.681109,52.9033383 95.1677781,51.91 C95.6544472,50.9166617 96.2477746,49.8333392 96.9477781,48.66 C97.6477816,47.4866608 98.3444413,46.5133372 99.0377781,45.74 C97.5444373,44.8466622 95.9577865,44.4 94.2777781,44.4 C93.5844413,44.4 92.8777817,44.4733326 92.1577781,44.62 C90.0911011,45.0600022 88.5177835,45.9599932 87.4377781,47.32 C86.7711081,48.1466708 86.4377781,48.9333296 86.4377781,49.68 C86.4377781,50.6933384 86.9244399,51.3533318 87.8977781,51.66 C88.2444465,51.7533338 88.5444435,51.8 88.7977781,51.8 C89.0511127,51.8 89.3344432,51.7600004 89.6477781,51.68 C89.961113,51.5999996 90.2711099,51.4133348 90.5777781,51.12 C91.1644477,50.5333304 91.4777779,49.9866692 91.5177781,49.48 C91.5311115,49.3599994 91.6077774,49.3166665 91.7477781,49.35 C91.8877788,49.3833335 91.9444449,49.4866658 91.9177781,49.66 C91.7844441,50.6333382 91.2711159,51.3733308 90.3777781,51.88 C89.8311087,52.1733348 89.2844475,52.32 88.7377781,52.32 L87.6977781,52.14 C86.6844397,51.7933316 86.0177797,51.1466714 85.6977781,50.2 C85.5644441,49.8399982 85.4977781,49.4800018 85.4977781,49.12 C85.4977781,48.386663 85.7711087,47.6600036 86.3177781,46.94 C87.4911173,45.3666588 89.5710965,44.3600022 92.5577781,43.92 C93.1444477,43.8399996 93.7244419,43.8 94.2977781,43.8 C96.1511207,43.8 97.9177697,44.2399956 99.5977781,45.12 C100.117781,44.519997 100.597776,44.0633349 101.037778,43.75 C101.47778,43.4366651 101.83111,43.28 102.097778,43.28 C102.244446,43.28 102.331111,43.3099997 102.357778,43.37 C102.384445,43.4300003 102.381112,43.4766665 102.347778,43.51 C102.314445,43.5433335 102.271112,43.56 102.217778,43.56 C101.99111,43.56 101.69778,43.7999976 101.337778,44.28 C100.977776,44.7600024 100.684446,45.2066646 100.457778,45.62 C101.884452,46.5666714 102.971108,47.7799926 103.717778,49.26 C104.317781,50.4466726 104.617778,51.739993 104.617778,53.14 C104.617778,54.873342 104.204449,56.2533282 103.377778,57.28 C102.697775,58.1200042 101.871116,58.7133316 100.897778,59.06 C99.7377723,59.4733354 98.5911171,59.68 97.4577781,59.68 C95.1644333,59.68 93.2111195,59.213338 91.5977781,58.28 Z M92.0777781,57.92 C93.4244515,58.720004 95.0044357,59.12 96.8177781,59.12 C98.9244553,59.12 100.604439,58.520006 101.857778,57.32 C102.857783,56.3466618 103.357778,55.0000086 103.357778,53.28 C103.357778,52.0533272 103.117781,50.9000054 102.637778,49.82 C102.037775,48.4466598 101.151117,47.3000046 99.9777781,46.38 C99.5911095,46.980003 98.8477836,48.1899909 97.7477781,50.01 C96.6477726,51.8300091 95.7177819,53.306661 94.9577781,54.44 C94.1977743,55.573339 93.5977803,56.3766643 93.1577781,56.85 C92.7177759,57.3233357 92.3577795,57.6799988 92.0777781,57.92 Z M90.9177781,57.96 C89.3577703,57.2133296 88.3711135,56.7666674 87.9577781,56.62 C87.5444427,56.4733326 87.1411134,56.4 86.7477781,56.4 C86.3544428,56.4 86.0411126,56.5466652 85.8077781,56.84 C85.5744436,57.1333348 85.4577781,57.3966655 85.4577781,57.63 C85.4577781,57.8633345 85.5111109,58.0866656 85.6177781,58.3 C85.8977795,58.8733362 86.4711071,59.16 87.3377781,59.16 C88.6177845,59.16 89.8111059,58.760004 90.9177781,57.96 Z M110.462223,50.98 C110.462223,51.580003 110.082226,52.146664 109.322223,52.68 C109.588891,52.6933334 109.945554,52.7 110.392223,52.7 C110.838891,52.7 111.402219,52.666667 112.082223,52.6 C112.108889,52.6400002 112.122223,52.7466658 112.122223,52.92 C112.122223,53.0933342 112.042223,53.3499983 111.882223,53.69 C111.722222,54.0300017 111.57889,54.3233321 111.452223,54.57 C111.325555,54.8166679 111.205556,55.0499989 111.092223,55.27 C110.978889,55.4900011 110.852223,55.7599984 110.712223,56.08 C110.572222,56.4000016 110.455556,56.693332 110.362223,56.96 C110.028888,57.9733384 110.08222,58.48 110.522223,58.48 C111.082225,58.48 111.908884,57.3666778 113.002223,55.14 C113.095556,54.9666658 113.172222,54.8999998 113.232223,54.94 C113.292223,54.9800002 113.322223,55.0299997 113.322223,55.09 C113.322223,55.1500003 113.235557,55.3566649 113.062223,55.71 C112.888888,56.0633351 112.702224,56.4266648 112.502223,56.8 C112.302222,57.1733352 111.988891,57.6066642 111.562223,58.1 C111.055553,58.7133364 110.568892,59.02 110.102223,59.02 C109.58222,59.02 109.222224,58.7066698 109.022223,58.08 C108.982222,57.9599994 108.962223,57.7800012 108.962223,57.54 C108.962223,57.2999988 109.038888,56.980002 109.192223,56.58 C109.345557,56.179998 109.588888,55.6933362 109.922223,55.12 C110.255558,54.5466638 110.442222,54.2100005 110.482223,54.11 C110.522223,54.0099995 110.542223,53.9133338 110.542223,53.82 C110.542223,53.4066646 110.008895,53.1866668 108.942223,53.16 L108.702223,53.8 C107.862218,56.000011 107.05556,57.4733296 106.282223,58.22 C106.148889,58.3400006 106.082223,58.300001 106.082223,58.1 C106.082223,58.0599998 106.095556,58.0133336 106.122223,57.96 C106.868893,56.9733284 107.515553,55.8066734 108.062223,54.46 C108.608892,53.1133266 108.988888,51.8333394 109.202223,50.62 C109.282223,50.2066646 109.468888,50 109.762223,50 C110.055557,50 110.268889,50.1866648 110.402223,50.56 C110.442223,50.6800006 110.462223,50.8199992 110.462223,50.98 Z M116.806667,59.28 C116.579999,59.28 116.406667,59.2100007 116.286667,59.07 C116.166666,58.9299993 116.106667,58.8066672 116.106667,58.7 C116.106667,58.3399982 116.213332,58.0733342 116.426667,57.9 C116.640001,57.7266658 116.859999,57.64 117.086667,57.64 C117.313335,57.64 117.486666,57.7099993 117.606667,57.85 C117.726667,57.9900007 117.786667,58.1133328 117.786667,58.22 C117.786667,58.3266672 117.773334,58.4499993 117.746667,58.59 C117.72,58.7300007 117.613334,58.8799992 117.426667,59.04 C117.239999,59.2000008 117.033335,59.28 116.806667,59.28 Z M145.875556,55.96 C145.795555,55.5066644 145.742222,55.1333348 145.715556,54.84 C145.688889,54.5466652 145.675556,54.2433349 145.675556,53.93 C145.675556,53.6166651 145.728888,53.4400002 145.835556,53.4 L145.895556,53.4 C146.295558,53.4 147.03555,53.1266694 148.115556,52.58 C149.195561,52.0333306 150.425549,51.2966713 151.805556,50.37 C153.185563,49.4433287 154.625548,48.2566739 156.125556,46.81 C157.625563,45.3633261 158.862217,43.9000074 159.835556,42.42 C160.00889,42.1666654 160.155555,42.04 160.275556,42.04 C160.315556,42.04 160.358889,42.0599998 160.405556,42.1 C160.452223,42.1400002 160.475556,42.2066662 160.475556,42.3 C160.475556,42.3933338 160.428889,42.5199992 160.335556,42.68 C158.815548,45.2000126 156.675569,47.5699889 153.915556,49.79 C151.155542,52.0100111 148.848898,53.353331 146.995556,53.82 C146.968889,53.8600002 146.955556,53.9433327 146.955556,54.07 C146.955556,54.1966673 146.968889,54.4066652 146.995556,54.7 C147.022222,54.9933348 147.152221,55.5566625 147.385556,56.39 C147.61889,57.2233375 147.888887,57.9933298 148.195556,58.7 C149.102227,60.7800104 150.295548,61.82 151.775556,61.82 C152.628893,61.82 153.445552,61.6400018 154.225556,61.28 C155.00556,60.9199982 155.568887,60.4000034 155.915556,59.72 C155.995556,59.5333324 156.095555,59.44 156.215556,59.44 C156.335556,59.44 156.322223,59.5866652 156.175556,59.88 C155.815554,60.613337 155.18556,61.2633305 154.285556,61.83 C153.385551,62.3966695 152.462227,62.68 151.515556,62.68 C150.568884,62.68 149.67556,62.3333368 148.835556,61.64 C147.368882,60.439994 146.382225,58.5466796 145.875556,55.96 Z M149.225556,43.67 C149.525557,43.3033315 149.785555,43.0900003 150.005556,43.03 C150.225557,42.9699997 150.438888,42.94 150.645556,42.94 C150.852223,42.94 151.008888,43.0266658 151.115556,43.2 C151.222223,43.3733342 151.275556,43.5466658 151.275556,43.72 C151.275556,43.8933342 151.14889,44.0933322 150.895556,44.32 C150.468887,44.7066686 149.79556,44.9466662 148.875556,45.04 C148.115552,46.4133402 147.242227,48.6199848 146.255556,51.66 C145.895554,52.7666722 145.412225,53.9433271 144.805556,55.19 C144.198886,56.4366729 143.548892,57.526662 142.855556,58.46 C142.162219,59.393338 141.245561,60.2166631 140.105556,60.93 C138.96555,61.6433369 137.675563,62.1066656 136.235556,62.32 C135.768887,62.386667 135.252225,62.42 134.685556,62.42 C134.118886,62.42 133.502226,62.3466674 132.835556,62.2 C130.395543,61.6399972 128.822226,60.4400092 128.115556,58.6 C127.902221,58.0399972 127.795556,57.4833361 127.795556,56.93 C127.795556,56.3766639 127.872222,55.8066696 128.025556,55.22 C128.17889,54.6333304 128.51222,54.1100023 129.025556,53.65 C129.538892,53.1899977 129.962221,52.9400002 130.295556,52.9 C130.46889,52.8733332 130.555556,52.9133328 130.555556,53.02 C130.555556,53.086667 130.515556,53.1399998 130.435556,53.18 C130.115554,53.3266674 129.728891,53.6733306 129.275556,54.22 C128.688886,54.9400036 128.395556,55.833328 128.395556,56.9 C128.395556,57.9933388 128.728886,58.8799966 129.395556,59.56 C130.208893,60.4133376 131.168883,60.9466656 132.275556,61.16 C133.035559,61.3066674 133.66222,61.38 134.155556,61.38 C134.648891,61.38 135.08222,61.3266672 135.455556,61.22 C136.548894,60.9666654 137.572218,60.5700027 138.525556,60.03 C139.478894,59.4899973 140.278886,58.9166697 140.925556,58.31 C141.572226,57.7033303 142.192219,56.9766709 142.785556,56.13 C143.378892,55.2833291 143.845554,54.5400032 144.185556,53.9 C144.525557,53.2599968 145.128885,51.9600098 145.995556,50 C146.862227,48.0399902 147.622219,46.4000066 148.275556,45.08 C148.075555,45.1066668 147.502227,45.1599996 146.555556,45.24 C144.80888,45.3866674 143.448894,45.5999986 142.475556,45.88 C140.64888,46.3866692 139.348893,47.3599928 138.575556,48.8 C138.20222,49.4933368 138.015556,50.1666634 138.015556,50.82 C138.015556,51.1666684 138.068888,51.506665 138.175556,51.84 C138.46889,52.7333378 139.048885,53.18 139.915556,53.18 C141.008894,53.18 141.775553,52.613339 142.215556,51.48 C142.42889,50.9333306 142.535556,50.4800018 142.535556,50.12 C142.535556,49.7599982 142.522222,49.5066674 142.495556,49.36 C142.468889,49.2133326 142.488889,49.14 142.555556,49.14 C142.662223,49.1666668 142.755555,49.2533326 142.835556,49.4 C142.955556,49.6800014 143.015556,50.0099981 143.015556,50.39 C143.015556,50.7700019 142.88889,51.2066642 142.635556,51.7 C142.235554,52.5400042 141.675559,53.093332 140.955556,53.36 C140.515553,53.5200008 140.102224,53.6 139.715556,53.6 C139.048886,53.6 138.448892,53.3600024 137.915556,52.88 C137.195552,52.2399968 136.835556,51.4066718 136.835556,50.38 C136.835556,48.9266594 137.515549,47.7066716 138.875556,46.72 C140.128895,45.786662 141.94221,45.1933346 144.315556,44.94 C145.035559,44.8599996 145.858884,44.7900003 146.785556,44.73 C147.712227,44.6699997 148.302221,44.6266668 148.555556,44.6 C148.702223,44.3466654 148.925554,44.0366685 149.225556,43.67 Z M150.655556,43.72 C150.655556,43.5733326 150.595556,43.5 150.475556,43.5 C150.328888,43.5 150.17889,43.5633327 150.025556,43.69 C149.872222,43.8166673 149.608891,44.0999978 149.235556,44.54 C149.622224,44.4866664 149.915555,44.4066672 150.115556,44.3 C150.475557,44.1266658 150.655556,43.9333344 150.655556,43.72 Z M157.8,52 C158.773338,52 159.26,52.6133272 159.26,53.84 C159.26,54.4000028 159.113335,54.9999968 158.82,55.64 C158.446665,56.506671 157.88667,57.2933298 157.14,58 C157.313334,58.333335 157.626664,58.5 158.08,58.5 C158.440002,58.5 158.779998,58.3200018 159.1,57.96 C159.500002,57.5466646 159.786666,57.1833349 159.96,56.87 C160.133334,56.5566651 160.26,56.3266674 160.34,56.18 C160.42,56.0333326 160.523333,55.8233347 160.65,55.55 C160.776667,55.2766653 160.853333,55.1100003 160.88,55.05 C160.906667,54.9899997 160.953333,54.96 161.02,54.96 C161.153334,54.9466666 161.22,54.9933328 161.22,55.1 C161.22,55.1400002 161.206667,55.1866664 161.18,55.24 L161.06,55.52 C160.98,55.7066676 160.92,55.8399996 160.88,55.92 C160.84,56.0000004 160.77,56.1433323 160.67,56.35 C160.569999,56.5566677 160.483334,56.7199994 160.41,56.84 C160.336666,56.9600006 160.236667,57.119999 160.11,57.32 C159.983333,57.520001 159.870001,57.6799994 159.77,57.8 C159.669999,57.9200006 159.546667,58.0533326 159.4,58.2 C159.253333,58.3466674 159.113334,58.4599996 158.98,58.54 C158.646665,58.740001 158.333335,58.84 158.04,58.84 C157.493331,58.84 157.066668,58.6666684 156.76,58.32 C156.146664,58.7733356 155.580003,59 155.06,59 C154.086662,59 153.6,58.3866728 153.6,57.16 C153.6,56.5999972 153.746665,56.0000032 154.04,55.36 C154.440002,54.426662 155.00333,53.6333366 155.73,52.98 C156.45667,52.3266634 157.146663,52 157.8,52 Z M158.02,52.62 C157.659998,52.62 157.233336,52.8599976 156.74,53.34 C156.246664,53.8200024 155.806669,54.4733292 155.42,55.3 C154.953331,56.2600048 154.72,57.0466636 154.72,57.66 C154.72,58.2733364 154.953331,58.58 155.42,58.58 C155.753335,58.58 156.126665,58.4000018 156.54,58.04 C156.326666,57.7333318 156.22,57.4066684 156.22,57.06 C156.246667,56.4866638 156.479998,56.2 156.92,56.2 C157.093334,56.2 157.236666,56.2599994 157.35,56.38 C157.463334,56.5000006 157.52,56.6099995 157.52,56.71 C157.52,56.8100005 157.506667,56.9133328 157.48,57.02 C157.706668,56.686665 157.966665,56.2133364 158.26,55.6 C158.593335,54.9199966 158.76,54.2533366 158.76,53.6 C158.76,52.9466634 158.513336,52.62 158.02,52.62 Z M164.024444,55.69 C163.917777,56.0033349 163.827778,56.3033319 163.754444,56.59 C163.681111,56.8766681 163.644444,57.1633319 163.644444,57.45 C163.644444,57.7366681 163.71111,58.0033321 163.844444,58.25 C163.977778,58.4966679 164.19111,58.62 164.484444,58.62 C164.964447,58.62 165.431109,58.2966699 165.884444,57.65 C166.33778,57.0033301 166.817775,56.180005 167.324444,55.18 C167.431112,54.9933324 167.531111,54.9199998 167.624444,54.96 C167.691111,55.0133336 167.704445,55.0833329 167.664444,55.17 C167.624444,55.2566671 167.541112,55.4433319 167.414444,55.73 C167.287777,56.0166681 167.194445,56.2166661 167.134444,56.33 C167.074444,56.4433339 166.967778,56.6433319 166.814444,56.93 C166.66111,57.2166681 166.527778,57.4299993 166.414444,57.57 C166.30111,57.7100007 166.147779,57.8899989 165.954444,58.11 C165.76111,58.3300011 165.577779,58.4933328 165.404444,58.6 C164.937775,58.8933348 164.49778,59.04 164.084444,59.04 C163.671109,59.04 163.351112,58.9500009 163.124444,58.77 C162.897777,58.5899991 162.761111,58.3966677 162.714444,58.19 C162.667777,57.9833323 162.644444,57.8000008 162.644444,57.64 C162.644444,57.4799992 162.651111,57.2733346 162.664444,57.02 C162.704445,56.5933312 162.787777,56.180002 162.914444,55.78 C163.041112,55.379998 163.111111,55.1533336 163.124444,55.1 C163.431113,53.9933278 163.867775,52.7866732 164.434444,51.48 C165.001114,50.1733268 165.481109,49.1900033 165.874444,48.53 C166.26778,47.8699967 166.577777,47.4200012 166.804444,47.18 C167.25778,46.6999976 167.704442,46.46 168.144444,46.46 C168.451113,46.46 168.657777,46.6799978 168.764444,47.12 C168.777778,47.2000004 168.784444,47.2999994 168.784444,47.42 C168.784444,47.8733356 168.624446,48.4466632 168.304444,49.14 C167.157772,51.6866794 165.791119,53.6866594 164.204444,55.14 C164.191111,55.1933336 164.131112,55.3766651 164.024444,55.69 Z M166.384444,51.88 C167.051114,50.8266614 167.541109,49.9300037 167.854444,49.19 C168.167779,48.4499963 168.324444,47.946668 168.324444,47.68 C168.324444,47.413332 168.277778,47.28 168.184444,47.28 C168.05111,47.28 167.79778,47.5433307 167.424444,48.07 C167.051109,48.5966693 166.547781,49.5433265 165.914444,50.91 C165.281108,52.2766735 164.764446,53.4733282 164.364444,54.5 C165.044448,53.8066632 165.717774,52.9333386 166.384444,51.88 Z M169.088889,57.4 C169.088889,56.2933278 169.622217,54.440013 170.688889,51.84 L169.648889,51.84 C169.582222,51.84 169.538889,51.8033337 169.518889,51.73 C169.498889,51.6566663 169.505555,51.5833337 169.538889,51.51 C169.572222,51.4366663 169.622222,51.4 169.688889,51.4 L170.888889,51.4 C171.368891,50.3466614 171.815553,49.4666702 172.228889,48.76 C172.642224,48.0533298 173.02222,47.5766679 173.368889,47.33 C173.715557,47.0833321 173.965555,46.96 174.118889,46.96 C174.272223,46.96 174.382222,46.9733332 174.448889,47 C174.755557,47.1466674 174.908889,47.4499977 174.908889,47.91 C174.908889,48.3700023 174.755557,48.9266634 174.448889,49.58 C174.142221,50.2333366 173.842224,50.8399972 173.548889,51.4 L174.508889,51.4 C174.575556,51.4 174.618889,51.4366663 174.638889,51.51 C174.658889,51.5833337 174.652222,51.6566663 174.618889,51.73 C174.585555,51.8033337 174.535556,51.84 174.468889,51.84 L173.308889,51.84 C172.575552,53.0800062 171.688894,54.1799952 170.648889,55.14 L170.188889,57.18 C170.148889,57.3533342 170.128889,57.5233325 170.128889,57.69 C170.128889,57.8566675 170.175555,58.0266658 170.268889,58.2 C170.362223,58.3733342 170.508888,58.46 170.708889,58.46 C170.935557,58.46 171.188887,58.3800008 171.468889,58.22 C172.108892,57.7399976 172.815552,56.733341 173.588889,55.2 C173.642222,55.0799994 173.705555,55.0066668 173.778889,54.98 C173.852222,54.9533332 173.895555,54.9699997 173.908889,55.03 C173.922222,55.0900003 173.902222,55.186666 173.848889,55.32 C173.408887,56.2400046 173.062223,56.8933314 172.808889,57.28 C172.088885,58.4400058 171.322226,59.02 170.508889,59.02 C170.095553,59.02 169.755557,58.8666682 169.488889,58.56 C169.222221,58.2533318 169.088889,57.866669 169.088889,57.4 Z M173.108889,51.4 C173.988893,49.8266588 174.428889,48.7333364 174.428889,48.12 C174.428889,47.853332 174.382223,47.72 174.288889,47.72 C174.142221,47.72 173.91889,47.9333312 173.618889,48.36 C173.318887,48.7866688 172.815559,49.799992 172.108889,51.4 L173.108889,51.4 Z M172.848889,51.84 L171.908889,51.84 C171.748888,52.2133352 171.388892,53.099993 170.828889,54.5 C171.548892,53.7533296 172.222219,52.8666718 172.848889,51.84 Z M175.133333,57.84 C175.133333,57.2666638 175.379997,56.5733374 175.873333,55.76 C175.659999,55.76 175.599999,55.6533344 175.693333,55.44 L176.053333,54.74 C176.506669,53.873329 176.879998,53.140003 177.173333,52.54 C177.306667,52.2599986 177.566665,52.12 177.953333,52.12 L179.173333,52.12 C178.693331,52.4666684 178.210002,53.1366617 177.723333,54.13 C177.236664,55.1233383 176.860001,55.9033305 176.593333,56.47 C176.326665,57.0366695 176.193333,57.4666652 176.193333,57.76 C176.193333,58.0533348 176.243333,58.2599994 176.343333,58.38 C176.443334,58.5000006 176.579999,58.56 176.753333,58.56 C177.006668,58.56 177.359998,58.293336 177.813333,57.76 C178.520003,56.9333292 179.513327,55.1933466 180.793333,52.54 C180.940001,52.2599986 181.199998,52.12 181.573333,52.12 L182.653333,52.12 C182.359998,52.3466678 182.130001,52.5799988 181.963333,52.82 C181.796666,53.0600012 181.566668,53.4866636 181.273333,54.1 C180.473329,55.700008 180.026667,56.7599974 179.933333,57.28 C179.893333,57.4666676 179.873333,57.6399992 179.873333,57.8 C179.873333,58.2266688 180.019998,58.4533332 180.313333,58.48 C181.033337,58.48 181.919995,57.3666778 182.973333,55.14 C183.053334,54.9533324 183.133333,54.8799998 183.213333,54.92 C183.293334,54.9600002 183.333333,55.013333 183.333333,55.08 C183.333333,55.146667 183.273334,55.2999988 183.153333,55.54 L182.803333,56.24 C182.689999,56.4666678 182.516668,56.7766647 182.283333,57.17 C182.049999,57.5633353 181.833334,57.8733322 181.633333,58.1 C181.113331,58.6866696 180.603336,58.98 180.103333,58.98 C179.603331,58.98 179.260001,58.7600022 179.073333,58.32 C178.993333,58.119999 178.953333,57.8666682 178.953333,57.56 C178.953333,57.2533318 179.019999,56.8733356 179.153333,56.42 C178.179995,58.1266752 177.280004,58.98 176.453333,58.98 C175.73333,58.98 175.313334,58.680003 175.193333,58.08 C175.153333,58.013333 175.133333,57.9333338 175.133333,57.84 Z M191.257777,52.44 C189.617769,55.3200144 188.797777,57.1999956 188.797777,58.08 C188.797777,58.4266684 188.924443,58.6 189.177777,58.6 C189.857781,58.6 190.771105,57.4466782 191.917777,55.14 C191.997778,54.9533324 192.077777,54.8799998 192.157777,54.92 C192.237778,54.9600002 192.277777,55.013333 192.277777,55.08 C192.277777,55.146667 192.251111,55.2266662 192.197777,55.32 C191.491107,56.7466738 190.894447,57.7299973 190.407777,58.27 C189.921108,58.8100027 189.434447,59.08 188.947777,59.08 C188.461108,59.08 188.091112,58.8933352 187.837777,58.52 C187.704443,58.3466658 187.637777,58.1100015 187.637777,57.81 C187.637777,57.5099985 187.704443,57.1466688 187.837777,56.72 C187.971111,56.2933312 188.337774,55.6000048 188.937777,54.64 C189.084445,54.3999988 189.157777,54.2100007 189.157777,54.07 C189.157777,53.9299993 189.044445,53.86 188.817777,53.86 C188.59111,53.86 188.157781,54.159997 187.517777,54.76 C186.557773,55.6400044 185.631115,56.9599912 184.737777,58.72 C184.657777,58.853334 184.567778,58.9366665 184.467777,58.97 C184.367777,59.0033335 184.171112,59.0266666 183.877777,59.04 C183.584443,59.0533334 183.391111,59.0866664 183.297777,59.14 C183.511112,58.7133312 183.931108,57.8400066 184.557777,56.52 C185.677783,54.186655 186.411109,52.853335 186.757777,52.52 C186.917778,52.3599992 187.137776,52.28 187.417777,52.28 C187.471111,52.28 187.607776,52.2999998 187.827777,52.34 C188.047779,52.3800002 188.21111,52.3866668 188.317777,52.36 C187.824442,52.626668 187.017783,53.8799888 185.897777,56.12 C186.524447,55.3466628 187.094442,54.7300023 187.607777,54.27 C188.121113,53.8099977 188.737774,53.3833353 189.457777,52.99 C190.177781,52.5966647 190.704442,52.4 191.037777,52.4 C191.117778,52.4 191.19111,52.4133332 191.257777,52.44 Z M197.802222,52 C198.77556,52 199.262222,52.6133272 199.262222,53.84 C199.262222,54.4000028 199.115557,54.9999968 198.822222,55.64 C198.448887,56.506671 197.888892,57.2933298 197.142222,58 C197.315556,58.333335 197.628886,58.5 198.082222,58.5 C198.442224,58.5 198.78222,58.3200018 199.102222,57.96 C199.502224,57.5466646 199.788888,57.1833349 199.962222,56.87 C200.135556,56.5566651 200.262221,56.3266674 200.342222,56.18 C200.422222,56.0333326 200.525555,55.8233347 200.652222,55.55 C200.778889,55.2766653 200.855555,55.1100003 200.882222,55.05 C200.908889,54.9899997 200.955555,54.96 201.022222,54.96 C201.155556,54.9466666 201.222222,54.9933328 201.222222,55.1 C201.222222,55.1400002 201.208889,55.1866664 201.182222,55.24 L201.062222,55.52 C200.982221,55.7066676 200.922222,55.8399996 200.882222,55.92 C200.842222,56.0000004 200.772222,56.1433323 200.672222,56.35 C200.572221,56.5566677 200.485556,56.7199994 200.412222,56.84 C200.338888,56.9600006 200.238889,57.119999 200.112222,57.32 C199.985555,57.520001 199.872222,57.6799994 199.772222,57.8 C199.672221,57.9200006 199.548889,58.0533326 199.402222,58.2 C199.255554,58.3466674 199.115556,58.4599996 198.982222,58.54 C198.648887,58.740001 198.335557,58.84 198.042222,58.84 C197.495552,58.84 197.06889,58.6666684 196.762222,58.32 C196.148885,58.7733356 195.582224,59 195.062222,59 C194.088884,59 193.602222,58.3866728 193.602222,57.16 C193.602222,56.5999972 193.748887,56.0000032 194.042222,55.36 C194.442224,54.426662 195.005552,53.6333366 195.732222,52.98 C196.458892,52.3266634 197.148885,52 197.802222,52 Z M198.022222,52.62 C197.66222,52.62 197.235558,52.8599976 196.742222,53.34 C196.248886,53.8200024 195.80889,54.4733292 195.422222,55.3 C194.955553,56.2600048 194.722222,57.0466636 194.722222,57.66 C194.722222,58.2733364 194.955553,58.58 195.422222,58.58 C195.755557,58.58 196.128886,58.4000018 196.542222,58.04 C196.328887,57.7333318 196.222222,57.4066684 196.222222,57.06 C196.248889,56.4866638 196.48222,56.2 196.922222,56.2 C197.095556,56.2 197.238888,56.2599994 197.352222,56.38 C197.465556,56.5000006 197.522222,56.6099995 197.522222,56.71 C197.522222,56.8100005 197.508889,56.9133328 197.482222,57.02 C197.70889,56.686665 197.968887,56.2133364 198.262222,55.6 C198.595557,54.9199966 198.762222,54.2533366 198.762222,53.6 C198.762222,52.9466634 198.515558,52.62 198.022222,52.62 Z M208.426666,52.02 L208.326666,52.38 C207.646663,54.5000106 207.020002,56.0466618 206.446666,57.02 C205.606662,58.4333404 204.726671,59.14 203.806666,59.14 C203.059996,59.14 202.686666,58.7800036 202.686666,58.06 C202.686666,57.5133306 202.886664,56.6666724 203.286666,55.52 C203.153332,55.7333344 203.05,55.8033337 202.976666,55.73 C202.903333,55.6566663 202.886666,55.5666672 202.926666,55.46 L203.286666,54.78 C203.540001,54.2599974 203.666666,53.7400026 203.666666,53.22 C203.666666,52.6999974 203.560001,52.3933338 203.346666,52.3 C204.14667,52.166666 204.613332,52.1033333 204.746666,52.11 C204.88,52.1166667 204.963333,52.1733328 204.996666,52.28 C205.03,52.3866672 205.046666,52.506666 205.046666,52.64 C205.046666,53.4533374 204.836668,54.4133278 204.416666,55.52 C203.996664,56.6266722 203.786666,57.3699981 203.786666,57.75 C203.786666,58.1300019 203.846666,58.3499997 203.966666,58.41 C204.086667,58.4700003 204.206666,58.5 204.326666,58.5 C204.673335,58.5 205.066664,58.2200028 205.506666,57.66 C205.946668,57.0999972 206.386664,56.2733388 206.826666,55.18 C206.639999,54.7533312 206.546666,54.3766683 206.546666,54.05 C206.546666,53.7233317 206.586666,53.4333346 206.666666,53.18 C206.906667,52.4199962 207.286664,51.9466676 207.806666,51.76 C207.913333,51.7199998 208.013332,51.7 208.106666,51.7 C208.320001,51.7 208.426666,51.8066656 208.426666,52.02 Z M215.651111,55.21 C215.211108,56.0566709 214.947778,56.6899979 214.861111,57.11 C214.774443,57.5300021 214.731111,57.8699987 214.731111,58.13 C214.731111,58.3900013 214.83111,58.52 215.031111,58.52 C215.284445,58.52 215.597775,58.286669 215.971111,57.82 C216.51778,57.1399966 217.057775,56.2533388 217.591111,55.16 C217.644444,55.0399994 217.704444,54.9733334 217.771111,54.96 C217.877778,54.9199998 217.931111,54.9599994 217.931111,55.08 C217.931111,55.146667 217.911111,55.2266662 217.871111,55.32 C216.644438,57.8000124 215.611115,59.04 214.771111,59.04 C214.384442,59.04 214.071112,58.8533352 213.831111,58.48 C213.71111,58.279999 213.651111,58.013335 213.651111,57.68 C213.651111,57.346665 213.717777,56.9400024 213.851111,56.46 C212.784439,58.1800086 211.864448,59.04 211.091111,59.04 C210.877776,59.04 210.684445,58.973334 210.511111,58.84 C210.111109,58.5599986 209.911111,58.0800034 209.911111,57.4 C209.911111,56.0933268 210.477772,54.7666734 211.611111,53.42 C212.251114,52.6733296 213.037773,52.1866678 213.971111,51.96 C214.224445,51.893333 214.464443,51.86 214.691111,51.86 C215.304447,51.86 215.824442,52.0733312 216.251111,52.5 C216.384445,52.6466674 216.424444,52.786666 216.371111,52.92 C216.317777,53.053334 216.204445,53.1066668 216.031111,53.08 C215.884443,52.5999976 215.564446,52.36 215.071111,52.36 C214.497774,52.36 213.791115,52.8133288 212.951111,53.72 C212.471108,54.253336 212.024446,54.8799964 211.611111,55.6 C211.091108,56.466671 210.831111,57.1599974 210.831111,57.68 C210.831111,58.2000026 210.997776,58.46 211.331111,58.46 C212.131115,58.46 213.177771,57.2333456 214.471111,54.78 C214.724445,54.2866642 214.937776,53.9500009 215.111111,53.77 C215.284445,53.5899991 215.504443,53.5 215.771111,53.5 C215.824444,53.5 215.961109,53.5199998 216.181111,53.56 C216.401112,53.6000002 216.564443,53.6066668 216.671111,53.58 C216.431109,53.8200012 216.091113,54.3633291 215.651111,55.21 Z" id="by-Dr.-Koltunova" fill="#A17C57"></path>
                </g>
            </g>
        </g>
    </g>
</svg>