<?xml version="1.0" encoding="UTF-8"?>
<svg width="26px" height="29px" viewBox="0 0 26 29" version="1.1" xmlns="http://www.w3.org/2000/svg" xmlns:xlink="http://www.w3.org/1999/xlink">
    <!-- Generator: Sketch 42 (36781) - http://www.bohemiancoding.com/sketch -->
    <title>Artboard@2x</title>
    <desc>Created with Sketch.</desc>
    <defs></defs>
    <g id="Page-1" stroke="none" stroke-width="1" fill="none" fill-rule="evenodd">
        <g id="Artboard" fill="#000000">
            <g id="5" transform="translate(4.000000, 3.000000)">
                <path d="M13.5842963,13.0100741 L16.6594815,9.93488889 L16.6594815,10.6034074 L13.8517037,13.4379259 L13.5842963,13.0100741 L13.9319259,13.5716296 L16.6594815,10.8440741 L16.6594815,11.5125926 L14.1993333,13.9727407 L14.2795556,14.1331852 L16.6594815,11.7532593 L16.6594815,12.4217778 L14.546963,14.5342963 L14.6271852,14.6947407 L16.6594815,12.6624444 L16.6594815,13.330963 L14.8945926,15.0958519 L15.1352593,15.4702222 L14.9748148,15.2295556 L16.6594815,13.5716296 L16.6594815,14.2401481 L15.2422222,15.6574074 L16.0177037,16.9142222 L16.6594815,16.2724444 L16.6594815,16.940963 L16.2851111,17.3153333 L16.0444444,16.9142222 L16.3653333,17.4757778 L16.6594815,17.1816296 L16.6594815,17.8501481 L16.6327407,17.8768889 L16.5792593,17.7966667 L16.6594815,17.9303704 L16.6594815,19 L12.9157778,19 L5.40162963,7.02014815 L5.56207407,7.23407407 L1.87185185,10.9242963 L1.87185185,10.2557778 L5.29466667,6.83296296 L5.02725926,6.40511111 L5.1877037,6.69925926 L1.87185185,10.0151111 L1.87185185,9.34659259 L4.94703704,6.27140741 L3.79718519,4.45303704 L1.87185185,6.40511111 L1.87185185,5.73659259 L3.55651852,4.05192593 L3.66348148,4.23911111 L3.52977778,4.02518519 L3.34259259,4.02518519 L1.87185185,5.49592593 L1.87185185,4.82740741 L2.67407407,4.02518519 L2.43340741,4.02518519 L1.87185185,4.58674074 L1.87185185,4.02518519 L0,4.02518519 L0,0.281481481 L5.61555556,0.281481481 L13.5842963,13.0100741 Z M1.87185185,14.5342963 L1.87185185,13.8657778 L5.61555556,10.1220741 L5.61555556,10.7905926 L1.87185185,14.5342963 Z M15.9374815,16.7537778 L15.6700741,16.3526667 L16.6594815,15.3632593 L16.6594815,16.0317778 L15.9374815,16.7537778 Z M15.5898519,16.218963 L15.3224444,15.7911111 L16.6594815,14.4540741 L16.6594815,15.1225926 L15.5898519,16.218963 Z M1.87185185,12.7426667 L1.87185185,12.0741481 L5.61555556,8.33044444 L5.61555556,8.99896296 L1.87185185,12.7426667 Z M5.61555556,7.42125926 L5.61555556,8.08977778 L1.87185185,11.8334815 L1.87185185,11.164963 L5.61555556,7.42125926 Z M5.61555556,14.6412593 L5.61555556,15.2562963 L7.48740741,15.2562963 L7.48740741,19 L0,19 L0,15.2562963 L1.87185185,15.2562963 L1.87185185,14.774963 L5.61555556,11.0312593 L5.61555556,11.6997778 L2.05903704,15.2562963 L2.2997037,15.2562963 L5.61555556,11.9404444 L5.61555556,12.608963 L2.96822222,15.2562963 L3.20888889,15.2562963 L5.61555556,12.8496296 L5.61555556,13.5181481 L3.87740741,15.2562963 L4.11807407,15.2562963 L5.61555556,13.7588148 L5.61555556,14.4273333 L4.78659259,15.2562963 L5.00051852,15.2562963 L5.61555556,14.6412593 Z M1.87185185,13.6251111 L1.87185185,12.9565926 L5.61555556,9.21288889 L5.61555556,9.88140741 L1.87185185,13.6251111 Z M1.87185185,9.10592593 L1.87185185,8.43740741 L4.59940741,5.70985185 L4.84007407,6.1377037 L1.87185185,9.10592593 Z M13.5040741,12.8763704 L13.2366667,12.4485185 L16.6594815,9.0257037 L16.6594815,9.69422222 L13.5040741,12.8763704 Z M12.9157778,11.9404444 L12.9157778,11.886963 L16.6594815,8.14325926 L16.6594815,8.81177778 L13.1564444,12.3148148 L12.9157778,11.9404444 Z M1.87185185,6.64577778 L3.90414815,4.61348148 L4.14481481,5.01459259 L1.87185185,7.3142963 L1.87185185,6.64577778 L1.87185185,6.64577778 Z M1.87185185,8.19674074 L1.87185185,7.52822222 L4.25177778,5.17503704 L4.49244444,5.57614815 L1.87185185,8.19674074 Z M12.3542222,4.02518519 L11.8728889,4.02518519 L11.0439259,3.19622222 L11.0439259,2.71488889 L12.3542222,4.02518519 Z M18.0767407,0.281481481 L18.5313333,0.281481481 L18.5313333,0.736074074 L18.0767407,0.281481481 Z M11.0439259,3.62407407 L11.445037,4.02518519 L11.0439259,4.02518519 L11.0439259,3.62407407 L11.0439259,3.62407407 Z M17.1675556,0.281481481 L17.6488889,0.281481481 L18.5313333,1.16392593 L18.5313333,1.64525926 L17.1675556,0.281481481 Z M16.2851111,0.281481481 L16.7664444,0.281481481 L18.5313333,2.04637037 L18.5313333,2.5277037 L16.6594815,0.655851852 L16.4455556,0.869777778 L16.5525185,1.00348148 L16.6594815,0.896518519 L16.6594815,1.0837037 L18.5313333,2.95555556 L18.5313333,3.43688889 L16.6594815,1.56503704 L16.4455556,1.77896296 L16.5525185,1.88592593 L16.6594815,1.8057037 L16.6594815,1.99288889 L18.5313333,3.86474074 L18.5313333,4.02518519 L18.2104444,4.02518519 L16.6594815,2.47422222 L16.4455556,2.68814815 L16.5525185,2.79511111 L16.6594815,2.71488889 L16.6594815,2.90207407 L17.7825926,4.02518519 L17.3012593,4.02518519 L16.6594815,3.38340741 L16.4455556,3.59733333 L16.5525185,3.7042963 L16.6594815,3.59733333 L16.6594815,3.81125926 L16.8734074,4.02518519 L16.6594815,4.02518519 L16.6594815,4.29259259 L16.6594815,4.29259259 L16.4455556,4.50651852 L16.5525185,4.61348148 L16.6594815,4.50651852 L16.6594815,5.20177778 L16.6594815,5.17503704 L16.4455556,5.38896296 L16.5525185,5.52266667 L16.6594815,5.4157037 L16.6594815,6.08422222 L16.6594815,6.08422222 L16.4455556,6.29814815 L16.5525185,6.43185185 L16.6594815,6.32488889 L16.6594815,6.99340741 L16.6594815,6.99340741 L16.4455556,7.20733333 L16.5525185,7.3142963 L16.6594815,7.23407407 L16.6594815,7.90259259 L12.9157778,11.6462963 L12.9157778,10.9777778 L16.3118519,7.55496296 L16.2048889,7.448 L15.990963,7.66192593 L16.0979259,7.76888889 L15.884,7.76888889 L12.9157778,10.7371111 L12.9157778,10.0685926 L15.4294074,7.55496296 L15.2957037,7.448 L15.0817778,7.66192593 L15.1887407,7.76888889 L14.9748148,7.76888889 L12.9157778,9.82792593 L12.9157778,9.15940741 L14.5202222,7.55496296 L14.3865185,7.448 L14.1725926,7.66192593 L14.2795556,7.76888889 L14.0656296,7.76888889 L12.9157778,8.91874074 L12.9157778,8.25022222 L13.611037,7.55496296 L13.4773333,7.448 L13.2634074,7.66192593 L13.3971111,7.76888889 L13.1564444,7.76888889 L12.9157778,8.00955556 L12.9157778,7.28755556 L12.9425185,7.3142963 L13.1564444,7.12711111 L13.0227407,6.99340741 L12.9157778,7.12711111 L12.9157778,6.40511111 L12.9425185,6.43185185 L13.1564444,6.21792593 L13.0227407,6.08422222 L12.9157778,6.21792593 L12.9157778,5.49592593 L12.9425185,5.52266667 L13.1564444,5.30874074 L13.0227407,5.17503704 L12.9157778,5.30874074 L12.9157778,4.58674074 L12.9425185,4.61348148 L13.1564444,4.39955556 L13.0227407,4.29259259 L12.9157778,4.39955556 L12.9157778,4.02518519 L12.7820741,4.02518519 L11.0439259,2.28703704 L11.0439259,1.8057037 L12.9425185,3.7042963 L13.1564444,3.49037037 L13.0227407,3.38340741 L12.9157778,3.49037037 L12.9157778,3.2497037 L11.0439259,1.37785185 L11.0439259,0.896518519 L12.9425185,2.79511111 L13.1564444,2.58118519 L13.0227407,2.47422222 L12.9157778,2.58118519 L12.9157778,2.34051852 L11.0439259,0.468666667 L11.0439259,0.281481481 L11.3380741,0.281481481 L12.9425185,1.88592593 L13.1564444,1.69874074 L13.0227407,1.56503704 L12.9157778,1.69874074 L12.9157778,1.45807407 L11.7391852,0.281481481 L12.2205185,0.281481481 L12.9425185,1.00348148 L13.1564444,0.789555556 L13.0227407,0.655851852 L12.9157778,0.789555556 L12.9157778,0.548888889 L12.6483704,0.281481481 L13.4238519,0.281481481 L13.2634074,0.415185185 L13.3971111,0.548888889 L13.611037,0.334962963 L13.5575556,0.281481481 L14.333037,0.281481481 L14.1725926,0.415185185 L14.3062963,0.548888889 L14.5202222,0.334962963 L14.4667407,0.281481481 L15.2154815,0.281481481 L15.0817778,0.415185185 L15.2154815,0.548888889 L15.4294074,0.334962963 L15.3759259,0.281481481 L16.1246667,0.281481481 L15.990963,0.415185185 L16.0979259,0.548888889 L16.3118519,0.334962963 L16.2851111,0.281481481 Z M13.3971111,6.88644444 L13.611037,6.67251852 L13.4773333,6.53881481 L13.2634074,6.75274074 L13.3971111,6.88644444 Z M13.3971111,5.97725926 L13.611037,5.76333333 L13.4773333,5.62962963 L13.2634074,5.84355556 L13.3971111,5.97725926 Z M13.3971111,5.06807407 L13.611037,4.85414815 L13.4773333,4.72044444 L13.2634074,4.93437037 L13.3971111,5.06807407 Z M13.3971111,4.15888889 L13.611037,3.94496296 L13.4773333,3.838 L13.2634074,4.05192593 L13.3971111,4.15888889 Z M13.3971111,3.2497037 L13.611037,3.03577778 L13.4773333,2.92881481 L13.2634074,3.14274074 L13.3971111,3.2497037 Z M13.3971111,2.34051852 L13.611037,2.12659259 L13.4773333,2.01962963 L13.2634074,2.23355556 L13.3971111,2.34051852 Z M13.3971111,1.45807407 L13.611037,1.24414815 L13.4773333,1.11044444 L13.2634074,1.32437037 L13.3971111,1.45807407 Z M13.8517037,7.3142963 L14.0656296,7.12711111 L13.9319259,6.99340741 L13.718,7.20733333 L13.8517037,7.3142963 Z M13.8517037,6.43185185 L14.0656296,6.21792593 L13.9319259,6.08422222 L13.718,6.29814815 L13.8517037,6.43185185 Z M13.8517037,5.52266667 L14.0656296,5.30874074 L13.9319259,5.17503704 L13.718,5.38896296 L13.8517037,5.52266667 Z M13.8517037,4.61348148 L14.0656296,4.39955556 L13.9319259,4.29259259 L13.718,4.50651852 L13.8517037,4.61348148 Z M13.8517037,3.7042963 L14.0656296,3.49037037 L13.9319259,3.38340741 L13.718,3.59733333 L13.8517037,3.7042963 Z M13.8517037,2.79511111 L14.0656296,2.58118519 L13.9319259,2.47422222 L13.718,2.68814815 L13.8517037,2.79511111 Z M13.8517037,1.88592593 L14.0656296,1.69874074 L13.9319259,1.56503704 L13.718,1.77896296 L13.8517037,1.88592593 Z M13.8517037,1.00348148 L14.0656296,0.789555556 L13.9319259,0.655851852 L13.718,0.869777778 L13.8517037,1.00348148 Z M14.3062963,6.88644444 L14.5202222,6.67251852 L14.3865185,6.53881481 L14.1725926,6.75274074 L14.3062963,6.88644444 Z M14.3062963,5.97725926 L14.5202222,5.76333333 L14.3865185,5.62962963 L14.1725926,5.84355556 L14.3062963,5.97725926 Z M14.3062963,5.06807407 L14.5202222,4.85414815 L14.3865185,4.72044444 L14.1725926,4.93437037 L14.3062963,5.06807407 Z M14.3062963,4.15888889 L14.5202222,3.94496296 L14.3865185,3.838 L14.1725926,4.05192593 L14.3062963,4.15888889 Z M14.3062963,3.2497037 L14.5202222,3.03577778 L14.3865185,2.92881481 L14.1725926,3.14274074 L14.3062963,3.2497037 Z M14.3062963,2.34051852 L14.5202222,2.12659259 L14.3865185,2.01962963 L14.1725926,2.23355556 L14.3062963,2.34051852 Z M14.3062963,1.45807407 L14.5202222,1.24414815 L14.3865185,1.11044444 L14.1725926,1.32437037 L14.3062963,1.45807407 Z M14.7608889,7.3142963 L14.9748148,7.12711111 L14.8411111,6.99340741 L14.6271852,7.20733333 L14.7608889,7.3142963 Z M14.7608889,6.43185185 L14.9748148,6.21792593 L14.8411111,6.08422222 L14.6271852,6.29814815 L14.7608889,6.43185185 Z M14.7608889,5.52266667 L14.9748148,5.30874074 L14.8411111,5.17503704 L14.6271852,5.38896296 L14.7608889,5.52266667 Z M14.7608889,4.61348148 L14.9748148,4.39955556 L14.8411111,4.29259259 L14.6271852,4.50651852 L14.7608889,4.61348148 Z M14.7608889,3.7042963 L14.9748148,3.49037037 L14.8411111,3.38340741 L14.6271852,3.59733333 L14.7608889,3.7042963 Z M14.7608889,2.79511111 L14.9748148,2.58118519 L14.8411111,2.47422222 L14.6271852,2.68814815 L14.7608889,2.79511111 Z M14.7608889,1.88592593 L14.9748148,1.69874074 L14.8411111,1.56503704 L14.6271852,1.77896296 L14.7608889,1.88592593 Z M14.7608889,1.00348148 L14.9748148,0.789555556 L14.8411111,0.655851852 L14.6271852,0.869777778 L14.7608889,1.00348148 Z M15.2154815,6.88644444 L15.4294074,6.67251852 L15.2957037,6.53881481 L15.0817778,6.75274074 L15.2154815,6.88644444 Z M15.2154815,5.97725926 L15.4294074,5.76333333 L15.2957037,5.62962963 L15.0817778,5.84355556 L15.2154815,5.97725926 Z M15.2154815,5.06807407 L15.4294074,4.85414815 L15.2957037,4.72044444 L15.0817778,4.93437037 L15.2154815,5.06807407 Z M15.2154815,4.15888889 L15.4294074,3.94496296 L15.2957037,3.838 L15.0817778,4.05192593 L15.2154815,4.15888889 Z M15.2154815,3.2497037 L15.4294074,3.03577778 L15.2957037,2.92881481 L15.0817778,3.14274074 L15.2154815,3.2497037 Z M15.2154815,2.34051852 L15.4294074,2.12659259 L15.2957037,2.01962963 L15.0817778,2.23355556 L15.2154815,2.34051852 Z M15.2154815,1.45807407 L15.4294074,1.24414815 L15.2957037,1.11044444 L15.0817778,1.32437037 L15.2154815,1.45807407 Z M15.6433333,7.3142963 L15.8572593,7.12711111 L15.7502963,6.99340741 L15.5363704,7.20733333 L15.6433333,7.3142963 Z M15.6433333,6.43185185 L15.8572593,6.21792593 L15.7502963,6.08422222 L15.5363704,6.29814815 L15.6433333,6.43185185 Z M15.6433333,5.52266667 L15.8572593,5.30874074 L15.7502963,5.17503704 L15.5363704,5.38896296 L15.6433333,5.52266667 Z M15.6433333,4.61348148 L15.8572593,4.39955556 L15.7502963,4.29259259 L15.5363704,4.50651852 L15.6433333,4.61348148 Z M15.6433333,3.7042963 L15.8572593,3.49037037 L15.7502963,3.38340741 L15.5363704,3.59733333 L15.6433333,3.7042963 Z M15.6433333,2.79511111 L15.8572593,2.58118519 L15.7502963,2.47422222 L15.5363704,2.68814815 L15.6433333,2.79511111 Z M15.6433333,1.88592593 L15.8572593,1.69874074 L15.7502963,1.56503704 L15.5363704,1.77896296 L15.6433333,1.88592593 Z M15.6433333,1.00348148 L15.8572593,0.789555556 L15.7502963,0.655851852 L15.5363704,0.869777778 L15.6433333,1.00348148 Z M16.0979259,6.88644444 L16.3118519,6.67251852 L16.2048889,6.53881481 L15.990963,6.75274074 L16.0979259,6.88644444 Z M16.0979259,5.97725926 L16.3118519,5.76333333 L16.2048889,5.62962963 L15.990963,5.84355556 L16.0979259,5.97725926 Z M16.0979259,5.06807407 L16.3118519,4.85414815 L16.2048889,4.72044444 L15.990963,4.93437037 L16.0979259,5.06807407 Z M16.0979259,4.15888889 L16.3118519,3.94496296 L16.2048889,3.838 L15.990963,4.05192593 L16.0979259,4.15888889 Z M16.0979259,3.2497037 L16.3118519,3.03577778 L16.2048889,2.92881481 L15.990963,3.14274074 L16.0979259,3.2497037 Z M16.0979259,2.34051852 L16.3118519,2.12659259 L16.2048889,2.01962963 L15.990963,2.23355556 L16.0979259,2.34051852 Z M16.0979259,1.45807407 L16.3118519,1.24414815 L16.2048889,1.11044444 L15.990963,1.32437037 L16.0979259,1.45807407 Z" id="Shape"></path>
            </g>
        </g>
    </g>
</svg>