<?xml version="1.0" encoding="UTF-8"?>
<svg width="48px" height="48px" viewBox="0 0 48 48" version="1.1" xmlns="http://www.w3.org/2000/svg" xmlns:xlink="http://www.w3.org/1999/xlink">
    <!-- Generator: Sketch 43.2 (39069) - http://www.bohemiancoding.com/sketch -->
    <title>48</title>
    <desc>Created with Sketch.</desc>
    <defs>
        <linearGradient x1="-5.98941105%" y1="-4.34656246%" x2="129.801766%" y2="84.5140435%" id="linearGradient-1">
            <stop stop-color="#E1CB5D" offset="0%"></stop>
            <stop stop-color="#BF9B30" stop-opacity="0.689538043" offset="100%"></stop>
        </linearGradient>
    </defs>
    <g id="Page-1" stroke="none" stroke-width="1" fill="none" fill-rule="evenodd">
        <g id="48" fill="url(#linearGradient-1)">
            <path d="M24.1329513,38.8893433 L24.1329513,39.1541091 L13.7902579,39.1541091 L13.7902579,38.8893433 L17.0654441,38.8893433 L3.53375358,8.61778687 L3.53375358,38.8893433 L6.89512894,38.8893433 L6.89512894,39.1541091 L0,39.1541091 L0,38.8893433 L3.36137536,38.8893433 L3.36137536,8.2647658 L0,8.2647658 L0,8 L6.9382235,8 L20.5991977,38.5804498 L20.5991977,8.2647658 L17.2378223,8.2647658 L17.2378223,8 L24.1329513,8 L24.1329513,8.2647658 L20.7715759,8.2647658 L20.7715759,38.8893433 L24.1329513,38.8893433 Z M43.3800573,25.7834362 C43.3800573,24.7832048 43.2220455,23.9962699 42.9060172,23.4226078 C42.5899889,22.8489457 42.2380535,22.4223829 41.8502006,22.1429065 C41.4623476,21.86343 41.0888652,21.6869213 40.7297421,21.6133749 C40.370619,21.5398284 40.1336013,21.5030558 40.0186819,21.5030558 L33.2097421,21.5030558 L33.2097421,38.8893433 L39.9755874,38.8893433 C40.6938336,38.8893433 41.2756043,38.7643162 41.7209169,38.5142584 C42.1662295,38.2642005 42.5109825,37.9332466 42.7551862,37.5213866 C42.99939,37.1095267 43.1645841,36.6461911 43.2507736,36.1313662 C43.3369632,35.6165412 43.3800573,35.1090785 43.3800573,34.6089628 L43.3800573,25.7834362 Z M33.2097421,21.23829 L38.2948997,21.23829 C38.9844161,21.23829 39.5733691,20.9293996 40.0617765,20.3116097 C40.5501839,19.6938197 40.794384,18.9436575 40.794384,18.0611004 L40.794384,11.4419554 C40.794384,10.5005612 40.5645486,9.73568985 40.1048711,9.14731846 C39.6451935,8.55894708 39.0418757,8.2647658 38.2948997,8.2647658 L33.2097421,8.2647658 L33.2097421,21.23829 Z M39.6739255,21.23829 C40.9954985,21.23829 42.1231281,21.5765984 43.0568481,22.2532255 C43.9905682,22.9298526 44.7518977,23.7388511 45.3408596,24.6802454 C45.9298215,25.6216396 46.3535804,26.5997923 46.612149,27.614733 C46.8707176,28.6296736 47,29.4901539 47,30.1961995 C47,31.461198 46.8204411,32.6379231 46.4613181,33.7264102 C46.102195,34.8148972 45.6066125,35.7636319 44.9745559,36.5726425 C44.3424992,37.3816532 43.5955344,38.0141429 42.733639,38.4701307 C41.8717435,38.9261186 40.9524022,39.1541091 39.9755874,39.1541091 L26.2284241,39.1541091 L26.2284241,38.8893433 L29.5897994,38.8893433 L29.5897994,8.2647658 L26.2284241,8.2647658 L26.2284241,8 L38.2948997,8 C39.3866339,8 40.2700635,8.27211768 40.9452149,8.81636121 C41.6203663,9.36060475 42.1518605,10.000449 42.5397135,10.7359133 C42.9275664,11.4713775 43.1933135,12.2141852 43.3369628,12.9643587 C43.480612,13.7145323 43.5524355,14.3102493 43.5524355,14.7515279 C43.5524355,16.3401306 43.1861355,17.7227826 42.4535244,18.8995254 C41.7209132,20.0762682 40.7943896,20.8558486 39.6739255,21.23829 Z" id="NB"></path>
        </g>
    </g>
</svg>