<?xml version="1.0" encoding="UTF-8"?>
<svg width="22px" height="22px" viewBox="0 0 22 22" version="1.1" xmlns="http://www.w3.org/2000/svg" xmlns:xlink="http://www.w3.org/1999/xlink">
    <!-- Generator: Sketch 43.2 (39069) - http://www.bohemiancoding.com/sketch -->
    <title>Shape</title>
    <desc>Created with Sketch.</desc>
    <defs>
        <linearGradient x1="-19.5026136%" y1="0%" x2="100%" y2="100%" id="linearGradient-1">
            <stop stop-color="#E1CB5D" offset="0%"></stop>
            <stop stop-color="#BF9B30" offset="100%"></stop>
        </linearGradient>
    </defs>
    <g id="Page-1" stroke="none" stroke-width="1" fill="none" fill-rule="evenodd">
        <g id="Artboard-3" transform="translate(-225.000000, -135.000000)" fill-rule="nonzero" fill="url(#linearGradient-1)">
            <g id="ic_new_releases_black_24px" transform="translate(224.000000, 134.000000)">
                <path d="M23,12 L20.56,9.22 L20.9,5.54 L17.29,4.72 L15.4,1.54 L12,3 L8.6,1.54 L6.71,4.72 L3.1,5.53 L3.44,9.21 L1,12 L3.44,14.78 L3.1,18.47 L6.71,19.29 L8.6,22.47 L12,21 L15.4,22.46 L17.29,19.28 L20.9,18.46 L20.56,14.78 L23,12 Z M13,17 L11,17 L11,15 L13,15 L13,17 Z M13,13 L11,13 L11,7 L13,7 L13,13 Z" id="Shape"></path>
            </g>
        </g>
    </g>
</svg>