<?xml version="1.0" encoding="UTF-8"?>
<svg width="26px" height="29px" viewBox="0 0 26 29" version="1.1" xmlns="http://www.w3.org/2000/svg" xmlns:xlink="http://www.w3.org/1999/xlink">
    <!-- Generator: Sketch 42 (36781) - http://www.bohemiancoding.com/sketch -->
    <title>Artboard@2x</title>
    <desc>Created with Sketch.</desc>
    <defs></defs>
    <g id="Page-1" stroke="none" stroke-width="1" fill="none" fill-rule="evenodd">
        <g id="Artboard" stroke="#000000" stroke-width="0.5">
            <g id="Group" transform="translate(2.000000, 3.000000)">
                <path d="M9.982,8.19372973 C9.982,8.19372973 7.82447222,0.673945946 5.80622222,1.82854054 C3.78893056,2.98281081 9.00769444,8.75091892 9.00769444,8.75091892 L9.982,8.19372973 Z" id="Shape"></path>
                <path d="M13.6370833,8.56118919 C13.6370833,8.56118919 18.3824306,2.38605405 16.2798472,1.39978378 C14.1772639,0.413837838 12.6218889,8.08508108 12.6218889,8.08508108 L13.6370833,8.56118919 Z" id="Shape"></path>
                <path d="M11.41375,7.94983784 L12.0143056,7.94983784 C12.0143056,7.94983784 13.77125,0.323351351 11.4549583,0.323351351 C11.4306806,0.323351351 11.4092778,0.329189189 11.3862778,0.330486486 C11.3626389,0.329189189 11.3409167,0.323675676 11.3163194,0.324 C9.00098611,0.352216216 10.8476944,7.95664865 10.8476944,7.95664865 L11.41375,7.94983784 Z" id="Shape"></path>
                <ellipse id="Oval" cx="11.462625" cy="12.0042162" rx="3.80011111" ry="3.85167568"></ellipse>
                <path d="M15.4633472,11.5563243 C15.4633472,11.5563243 23.1766528,11.4097297 22.6064444,9.13037838 C22.0375139,6.85167568 15.188625,10.4562162 15.188625,10.4562162 L15.4633472,11.5563243 Z" id="Shape"></path>
                <path d="M7.86759722,10.1364324 L8.51063889,9.20821622 C8.51063889,9.20821622 3.37620833,3.36259459 2.04380556,5.28616216 C0.712041667,7.20940541 7.86759722,10.1364324 7.86759722,10.1364324 Z" id="Shape"></path>
                <path d="M14.1692778,8.976 L14.8835556,9.84908108 C14.8835556,9.84908108 21.7841944,6.34735135 20.3042083,4.53859459 C18.8245417,2.73016216 14.1692778,8.976 14.1692778,8.976 Z" id="Shape"></path>
                <path d="M14.9905694,13.9731892 L14.3222917,14.8835676 C14.3222917,14.8835676 19.2918889,20.8741622 20.677,18.9888649 C22.0617917,17.1048649 14.9905694,13.9731892 14.9905694,13.9731892 Z" id="Shape"></path>
                <path d="M12.8231389,15.8552432 C12.8231389,15.8552432 14.7711111,23.4337297 16.8206667,22.3371892 C18.8689444,21.2412973 13.8127778,15.3262703 13.8127778,15.3262703 L12.8231389,15.8552432 Z" id="Shape"></path>
                <path d="M11.0582083,16.0780541 C11.0582083,16.0780541 9.60441667,23.7700541 11.9194306,23.6756757 C14.2328472,23.5812973 12.1753056,16.0326486 12.1753056,16.0326486 L11.0582083,16.0780541 Z" id="Shape"></path>
                <path d="M15.4815556,12.2374054 L15.2630556,13.3511351 C15.2630556,13.3511351 22.2882778,16.5878919 22.7393333,14.280973 C23.1913472,11.975027 15.4815556,12.2374054 15.4815556,12.2374054 Z" id="Shape"></path>
                <path d="M7.42516667,11.8858378 L7.61236111,10.7669189 C7.61236111,10.7669189 0.50025,7.73286486 0.112763889,10.0514595 C-0.274722222,12.3694054 7.42516667,11.8858378 7.42516667,11.8858378 Z" id="Shape"></path>
                <path d="M6.92843056,22.7425946 C9.05688889,23.6682162 10.3982361,15.9544865 10.3982361,15.9544865 L9.37058333,15.5078919 C9.37058333,15.5078919 4.79869444,21.8166486 6.92843056,22.7425946 Z" id="Shape"></path>
                <path d="M7.46190278,12.5662703 C7.46190278,12.5662703 -0.244375,12.9337297 0.388763889,15.1962162 C1.02094444,17.4577297 7.76697222,13.6582703 7.76697222,13.6582703 L7.46190278,12.5662703 Z" id="Shape"></path>
                <path d="M8.08833333,14.2563243 C8.08833333,14.2563243 1.288,17.9542703 2.81813889,19.7205405 C4.347,21.4851892 8.82688889,15.1083243 8.82688889,15.1083243 L8.08833333,14.2563243 Z" id="Shape"></path>
            </g>
        </g>
    </g>
</svg>