<?xml version="1.0" encoding="UTF-8"?>
<svg width="22px" height="22px" viewBox="0 0 22 22" version="1.1" xmlns="http://www.w3.org/2000/svg" xmlns:xlink="http://www.w3.org/1999/xlink">
    <!-- Generator: Sketch 43.1 (39012) - http://www.bohemiancoding.com/sketch -->
    <title>120 - iPhone@2x</title>
    <desc>Created with Sketch.</desc>
    <defs></defs>
    <g id="Page-1" stroke="none" stroke-width="1" fill="none" fill-rule="evenodd">
        <g id="120---iPhone" stroke="#000000">
            <path d="M16.8212931,15.121129 C16.5804881,15.8026475 15.622111,16.3673958 14.8585304,16.532058 C14.3357548,16.6437162 13.6536982,16.7319665 11.3556919,15.7795087 C8.41760164,14.5622999 6.52425539,11.5760486 6.37761993,11.3823284 C6.23663465,11.1880701 5.19027632,9.80081793 5.19027632,8.36621196 C5.19027632,6.93187505 5.91914871,6.2320607 6.21295773,5.93233245 C6.4540318,5.68533914 6.85357979,5.57395001 7.23563914,5.57395001 C7.35940485,5.57395001 7.47079398,5.57960018 7.57088277,5.58551941 C7.8646918,5.59735787 8.01159631,5.6148465 8.20531654,6.07923696 C8.44665967,6.66120483 9.03427772,8.0958108 9.1045013,8.24271531 C9.175263,8.38961982 9.24575564,8.5897974 9.14566686,8.78351764 C9.05176635,8.98342616 8.9691662,9.07194554 8.82253074,9.24225792 C8.67562623,9.41283935 8.53437189,9.54225523 8.38746738,9.72440606 C8.25240132,9.88287997 8.09957758,10.0537305 8.27015901,10.3475395 C8.44074044,10.6356983 9.02808943,11.5938063 9.89229693,12.3635752 C11.0086098,13.3571986 11.9137138,13.6749536 12.237388,13.8100196 C12.478193,13.9101084 12.7663519,13.8867006 12.9423144,13.6983614 C13.1656308,13.4572874 13.4419512,13.0574703 13.7239218,12.6638416 C13.9235612,12.381602 14.1764738,12.3460866 14.4409557,12.4461754 C14.7113568,12.5400759 16.1400436,13.2455404 16.4335836,13.3924449 C16.7271235,13.5398875 16.9216509,13.6101111 16.9918745,13.7336078 C17.0623672,13.8571044 17.0623672,14.4388032 16.8212931,15.121129 L16.8212931,15.121129 Z M11.0029596,1 L10.9970404,1 L10.9970404,1 C5.4843544,1 1,5.48543062 1,10.9997309 C1,13.1866172 1.70546452,15.2147604 2.90410848,16.8608443 L1.65837975,20.576237 L5.50211209,19.3479969 C7.08308446,20.3943552 8.9691662,21 11.0029596,21 C16.5159147,21 21,16.5140313 21,11 C21,5.48543062 16.5159147,1 11.0029596,1 L11.0029596,1 Z" id="Stroke-143"></path>
        </g>
    </g>
</svg>